<svg width="305" height="124" viewBox="0 0 305 124" fill="none" xmlns="http://www.w3.org/2000/svg">
<path d="M1.98593 30.7379C1.98593 29.6641 2.12513 28.6768 2.40354 27.7763C2.68479 26.8729 3.08536 26.0419 3.60525 25.2834H4.49161C4.28707 25.5646 4.0953 25.9112 3.91633 26.3232C3.74019 26.7322 3.58536 27.1825 3.45184 27.674C3.31832 28.1626 3.2132 28.6683 3.1365 29.1911C3.06263 29.7138 3.0257 30.2294 3.0257 30.7379C3.0257 31.4141 3.09104 32.1001 3.22172 32.7962C3.35241 33.4922 3.52854 34.1385 3.75013 34.7351C3.97172 35.3317 4.21888 35.8175 4.49161 36.1925H3.60525C3.08536 35.4339 2.68479 34.6044 2.40354 33.7038C2.12513 32.8004 1.98593 31.8118 1.98593 30.7379ZM6.33358 30.7379C6.33358 29.6641 6.47279 28.6768 6.7512 27.7763C7.03245 26.8729 7.43302 26.0419 7.9529 25.2834H8.83927C8.63472 25.5646 8.44296 25.9112 8.26398 26.3232C8.08785 26.7322 7.93302 27.1825 7.79949 27.674C7.66597 28.1626 7.56086 28.6683 7.48415 29.1911C7.41029 29.7138 7.37336 30.2294 7.37336 30.7379C7.37336 31.4141 7.4387 32.1001 7.56938 32.7962C7.70006 33.4922 7.8762 34.1385 8.09779 34.7351C8.31938 35.3317 8.56654 35.8175 8.83927 36.1925H7.9529C7.43302 35.4339 7.03245 34.6044 6.7512 33.7038C6.47279 32.8004 6.33358 31.8118 6.33358 30.7379ZM13.1528 35.2209C12.5108 35.2209 11.9639 35.0462 11.5122 34.6967C11.0605 34.3445 10.7153 33.8345 10.4767 33.1669C10.2381 32.4964 10.1187 31.6868 10.1187 30.7379C10.1187 29.7947 10.2381 28.9893 10.4767 28.3217C10.7182 27.6513 11.0648 27.1399 11.5165 26.7876C11.971 26.4325 12.5165 26.255 13.1528 26.255C13.7892 26.255 14.3332 26.4325 14.7849 26.7876C15.2395 27.1399 15.5861 27.6513 15.8247 28.3217C16.0662 28.9893 16.1869 29.7947 16.1869 30.7379C16.1869 31.6868 16.0676 32.4964 15.829 33.1669C15.5903 33.8345 15.2452 34.3445 14.7935 34.6967C14.3418 35.0462 13.7949 35.2209 13.1528 35.2209ZM13.1528 34.2834C13.7892 34.2834 14.2835 33.9766 14.6358 33.3629C14.9881 32.7493 15.1642 31.8743 15.1642 30.7379C15.1642 29.9822 15.0832 29.3388 14.9213 28.8075C14.7622 28.2763 14.5321 27.8714 14.231 27.593C13.9327 27.3146 13.5733 27.1754 13.1528 27.1754C12.5222 27.1754 12.0293 27.4865 11.6741 28.1087C11.319 28.728 11.1415 29.6044 11.1415 30.7379C11.1415 31.4936 11.221 32.1357 11.3801 32.6641C11.5392 33.1925 11.7679 33.5945 12.0662 33.87C12.3673 34.1456 12.7295 34.2834 13.1528 34.2834ZM19.0186 33.9084L18.9504 34.3686C18.9021 34.6925 18.8283 35.0391 18.7288 35.4084C18.6322 35.7777 18.5314 36.1257 18.4263 36.4524C18.3212 36.7791 18.2345 37.0391 18.1663 37.2322H17.3993C17.4362 37.0504 17.4845 36.8104 17.5442 36.5121C17.6038 36.2138 17.6635 35.88 17.7231 35.5107C17.7856 35.1442 17.8368 34.7692 17.8766 34.3857L17.9277 33.9084H19.0186ZM27.0864 35.2209C26.4444 35.2209 25.8975 35.0462 25.4458 34.6967C24.9941 34.3445 24.6489 33.8345 24.4103 33.1669C24.1717 32.4964 24.0523 31.6868 24.0523 30.7379C24.0523 29.7947 24.1717 28.9893 24.4103 28.3217C24.6518 27.6513 24.9984 27.1399 25.4501 26.7876C25.9046 26.4325 26.4501 26.255 27.0864 26.255C27.7228 26.255 28.2668 26.4325 28.7185 26.7876C29.1731 27.1399 29.5197 27.6513 29.7583 28.3217C29.9998 28.9893 30.1205 29.7947 30.1205 30.7379C30.1205 31.6868 30.0012 32.4964 29.7626 33.1669C29.5239 33.8345 29.1788 34.3445 28.7271 34.6967C28.2753 35.0462 27.7285 35.2209 27.0864 35.2209ZM27.0864 34.2834C27.7228 34.2834 28.2171 33.9766 28.5694 33.3629C28.9217 32.7493 29.0978 31.8743 29.0978 30.7379C29.0978 29.9822 29.0168 29.3388 28.8549 28.8075C28.6958 28.2763 28.4657 27.8714 28.1646 27.593C27.8663 27.3146 27.5069 27.1754 27.0864 27.1754C26.4557 27.1754 25.9628 27.4865 25.6077 28.1087C25.2526 28.728 25.0751 29.6044 25.0751 30.7379C25.0751 31.4936 25.1546 32.1357 25.3137 32.6641C25.4728 33.1925 25.7015 33.5945 25.9998 33.87C26.3009 34.1456 26.6631 34.2834 27.0864 34.2834ZM32.9522 33.9084L32.884 34.3686C32.8357 34.6925 32.7619 35.0391 32.6624 35.4084C32.5658 35.7777 32.465 36.1257 32.3599 36.4524C32.2547 36.7791 32.1681 37.0391 32.0999 37.2322H31.3329C31.3698 37.0504 31.4181 36.8104 31.4778 36.5121C31.5374 36.2138 31.5971 35.88 31.6567 35.5107C31.7192 35.1442 31.7704 34.7692 31.8101 34.3857L31.8613 33.9084H32.9522ZM41.2416 26.3743V35.1016H40.1848V27.4822H40.1337L38.003 28.897V27.8232L40.1848 26.3743H41.2416ZM44.753 33.9084L44.6848 34.3686C44.6365 34.6925 44.5626 35.0391 44.4632 35.4084C44.3666 35.7777 44.2658 36.1257 44.1606 36.4524C44.0555 36.7791 43.9689 37.0391 43.9007 37.2322H43.1337C43.1706 37.0504 43.2189 36.8104 43.2785 36.5121C43.3382 36.2138 43.3979 35.88 43.4575 35.5107C43.52 35.1442 43.5712 34.7692 43.6109 34.3857L43.6621 33.9084H44.753ZM52.8208 35.2209C52.1788 35.2209 51.6319 35.0462 51.1802 34.6967C50.7285 34.3445 50.3833 33.8345 50.1447 33.1669C49.906 32.4964 49.7867 31.6868 49.7867 30.7379C49.7867 29.7947 49.906 28.9893 50.1447 28.3217C50.3861 27.6513 50.7327 27.1399 51.1844 26.7876C51.639 26.4325 52.1844 26.255 52.8208 26.255C53.4572 26.255 54.0012 26.4325 54.4529 26.7876C54.9074 27.1399 55.254 27.6513 55.4927 28.3217C55.7342 28.9893 55.8549 29.7947 55.8549 30.7379C55.8549 31.6868 55.7356 32.4964 55.4969 33.1669C55.2583 33.8345 54.9131 34.3445 54.4614 34.6967C54.0097 35.0462 53.4628 35.2209 52.8208 35.2209ZM52.8208 34.2834C53.4572 34.2834 53.9515 33.9766 54.3038 33.3629C54.656 32.7493 54.8322 31.8743 54.8322 30.7379C54.8322 29.9822 54.7512 29.3388 54.5893 28.8075C54.4302 28.2763 54.2001 27.8714 53.8989 27.593C53.6006 27.3146 53.2413 27.1754 52.8208 27.1754C52.1901 27.1754 51.6972 27.4865 51.3421 28.1087C50.987 28.728 50.8094 29.6044 50.8094 30.7379C50.8094 31.4936 50.889 32.1357 51.0481 32.6641C51.2072 33.1925 51.4359 33.5945 51.7342 33.87C52.0353 34.1456 52.3975 34.2834 52.8208 34.2834ZM58.6866 33.9084L58.6184 34.3686C58.5701 34.6925 58.4962 35.0391 58.3968 35.4084C58.3002 35.7777 58.1994 36.1257 58.0942 36.4524C57.9891 36.7791 57.9025 37.0391 57.8343 37.2322H57.0672C57.1042 37.0504 57.1525 36.8104 57.2121 36.5121C57.2718 36.2138 57.3315 35.88 57.3911 35.5107C57.4536 35.1442 57.5047 34.7692 57.5445 34.3857L57.5957 33.9084H58.6866ZM66.7544 35.2209C66.1123 35.2209 65.5655 35.0462 65.1138 34.6967C64.6621 34.3445 64.3169 33.8345 64.0783 33.1669C63.8396 32.4964 63.7203 31.6868 63.7203 30.7379C63.7203 29.7947 63.8396 28.9893 64.0783 28.3217C64.3197 27.6513 64.6663 27.1399 65.118 26.7876C65.5726 26.4325 66.118 26.255 66.7544 26.255C67.3908 26.255 67.9348 26.4325 68.3865 26.7876C68.841 27.1399 69.1876 27.6513 69.4263 28.3217C69.6677 28.9893 69.7885 29.7947 69.7885 30.7379C69.7885 31.6868 69.6692 32.4964 69.4305 33.1669C69.1919 33.8345 68.8467 34.3445 68.395 34.6967C67.9433 35.0462 67.3964 35.2209 66.7544 35.2209ZM66.7544 34.2834C67.3908 34.2834 67.8851 33.9766 68.2373 33.3629C68.5896 32.7493 68.7658 31.8743 68.7658 30.7379C68.7658 29.9822 68.6848 29.3388 68.5229 28.8075C68.3638 28.2763 68.1337 27.8714 67.8325 27.593C67.5342 27.3146 67.1748 27.1754 66.7544 27.1754C66.1237 27.1754 65.6308 27.4865 65.2757 28.1087C64.9206 28.728 64.743 29.6044 64.743 30.7379C64.743 31.4936 64.8226 32.1357 64.9817 32.6641C65.1408 33.1925 65.3695 33.5945 65.6677 33.87C65.9689 34.1456 66.3311 34.2834 66.7544 34.2834ZM73.5726 30.7379C73.5726 31.8118 73.432 32.8004 73.1507 33.7038C72.8723 34.6044 72.4731 35.4339 71.9533 36.1925H71.0669C71.2714 35.9112 71.4618 35.5646 71.6379 35.1527C71.8169 34.7436 71.9731 34.2947 72.1067 33.8061C72.2402 33.3146 72.3439 32.8075 72.4177 32.2848C72.4945 31.7592 72.5328 31.2436 72.5328 30.7379C72.5328 30.0618 72.4675 29.3757 72.3368 28.6797C72.2061 27.9837 72.03 27.3374 71.8084 26.7408C71.5868 26.1442 71.3396 25.6584 71.0669 25.2834H71.9533C72.4731 26.0419 72.8723 26.8729 73.1507 27.7763C73.432 28.6768 73.5726 29.6641 73.5726 30.7379ZM77.2725 33.9084L77.2043 34.3686C77.156 34.6925 77.0822 35.0391 76.9827 35.4084C76.8861 35.7777 76.7853 36.1257 76.6802 36.4524C76.5751 36.7791 76.4884 37.0391 76.4202 37.2322H75.6532C75.6901 37.0504 75.7384 36.8104 75.7981 36.5121C75.8577 36.2138 75.9174 35.88 75.9771 35.5107C76.0396 35.1442 76.0907 34.7692 76.1305 34.3857L76.1816 33.9084H77.2725ZM8.73593 45.7379C8.73593 44.6641 8.87513 43.6768 9.15354 42.7763C9.43479 41.8729 9.83536 41.0419 10.3552 40.2834H11.2416C11.0371 40.5646 10.8453 40.9112 10.6663 41.3232C10.4902 41.7322 10.3354 42.1825 10.2018 42.674C10.0683 43.1626 9.9632 43.6683 9.8865 44.1911C9.81263 44.7138 9.7757 45.2294 9.7757 45.7379C9.7757 46.4141 9.84104 47.1001 9.97172 47.7962C10.1024 48.4922 10.2785 49.1385 10.5001 49.7351C10.7217 50.3317 10.9689 50.8175 11.2416 51.1925H10.3552C9.83536 50.4339 9.43479 49.6044 9.15354 48.7038C8.87513 47.8004 8.73593 46.8118 8.73593 45.7379ZM15.5552 50.2209C14.9131 50.2209 14.3663 50.0462 13.9146 49.6967C13.4628 49.3445 13.1177 48.8345 12.879 48.1669C12.6404 47.4964 12.5211 46.6868 12.5211 45.7379C12.5211 44.7947 12.6404 43.9893 12.879 43.3217C13.1205 42.6513 13.4671 42.1399 13.9188 41.7876C14.3734 41.4325 14.9188 41.255 15.5552 41.255C16.1915 41.255 16.7356 41.4325 17.1873 41.7876C17.6418 42.1399 17.9884 42.6513 18.2271 43.3217C18.4685 43.9893 18.5893 44.7947 18.5893 45.7379C18.5893 46.6868 18.4699 47.4964 18.2313 48.1669C17.9927 48.8345 17.6475 49.3445 17.1958 49.6967C16.7441 50.0462 16.1972 50.2209 15.5552 50.2209ZM15.5552 49.2834C16.1915 49.2834 16.6859 48.9766 17.0381 48.3629C17.3904 47.7493 17.5665 46.8743 17.5665 45.7379C17.5665 44.9822 17.4856 44.3388 17.3236 43.8075C17.1646 43.2763 16.9344 42.8714 16.6333 42.593C16.335 42.3146 15.9756 42.1754 15.5552 42.1754C14.9245 42.1754 14.4316 42.4865 14.0765 43.1087C13.7214 43.728 13.5438 44.6044 13.5438 45.7379C13.5438 46.4936 13.6234 47.1357 13.7824 47.6641C13.9415 48.1925 14.1702 48.5945 14.4685 48.87C14.7697 49.1456 15.1319 49.2834 15.5552 49.2834ZM21.4209 48.9084L21.3528 49.3686C21.3045 49.6925 21.2306 50.0391 21.1312 50.4084C21.0346 50.7777 20.9337 51.1257 20.8286 51.4524C20.7235 51.7791 20.6369 52.0391 20.5687 52.2322H19.8016C19.8386 52.0504 19.8869 51.8104 19.9465 51.5121C20.0062 51.2138 20.0658 50.88 20.1255 50.5107C20.188 50.1442 20.2391 49.7692 20.2789 49.3857L20.33 48.9084H21.4209ZM29.7104 41.3743V50.1016H28.6535V42.4822H28.6024L26.4717 43.897V42.8232L28.6535 41.3743H29.7104ZM33.2217 48.9084L33.1535 49.3686C33.1052 49.6925 33.0314 50.0391 32.932 50.4084C32.8354 50.7777 32.7345 51.1257 32.6294 51.4524C32.5243 51.7791 32.4376 52.0391 32.3695 52.2322H31.6024C31.6393 52.0504 31.6876 51.8104 31.7473 51.5121C31.807 51.2138 31.8666 50.88 31.9263 50.5107C31.9888 50.1442 32.0399 49.7692 32.0797 49.3857L32.1308 48.9084H33.2217ZM41.2896 50.2209C40.6475 50.2209 40.1006 50.0462 39.6489 49.6967C39.1972 49.3445 38.8521 48.8345 38.6134 48.1669C38.3748 47.4964 38.2555 46.6868 38.2555 45.7379C38.2555 44.7947 38.3748 43.9893 38.6134 43.3217C38.8549 42.6513 39.2015 42.1399 39.6532 41.7876C40.1077 41.4325 40.6532 41.255 41.2896 41.255C41.9259 41.255 42.4699 41.4325 42.9217 41.7876C43.3762 42.1399 43.7228 42.6513 43.9614 43.3217C44.2029 43.9893 44.3236 44.7947 44.3236 45.7379C44.3236 46.6868 44.2043 47.4964 43.9657 48.1669C43.7271 48.8345 43.3819 49.3445 42.9302 49.6967C42.4785 50.0462 41.9316 50.2209 41.2896 50.2209ZM41.2896 49.2834C41.9259 49.2834 42.4202 48.9766 42.7725 48.3629C43.1248 47.7493 43.3009 46.8743 43.3009 45.7379C43.3009 44.9822 43.2199 44.3388 43.058 43.8075C42.8989 43.2763 42.6688 42.8714 42.3677 42.593C42.0694 42.3146 41.71 42.1754 41.2896 42.1754C40.6589 42.1754 40.166 42.4865 39.8109 43.1087C39.4557 43.728 39.2782 44.6044 39.2782 45.7379C39.2782 46.4936 39.3577 47.1357 39.5168 47.6641C39.6759 48.1925 39.9046 48.5945 40.2029 48.87C40.504 49.1456 40.8663 49.2834 41.2896 49.2834ZM47.1553 48.9084L47.0871 49.3686C47.0388 49.6925 46.965 50.0391 46.8655 50.4084C46.769 50.7777 46.6681 51.1257 46.563 51.4524C46.4579 51.7791 46.3712 52.0391 46.303 52.2322H45.536C45.5729 52.0504 45.6212 51.8104 45.6809 51.5121C45.7405 51.2138 45.8002 50.88 45.8599 50.5107C45.9224 50.1442 45.9735 49.7692 46.0133 49.3857L46.0644 48.9084H47.1553ZM55.4447 41.3743V50.1016H54.3879V42.4822H54.3368L52.2061 43.897V42.8232L54.3879 41.3743H55.4447ZM58.9561 48.9084L58.8879 49.3686C58.8396 49.6925 58.7658 50.0391 58.6663 50.4084C58.5697 50.7777 58.4689 51.1257 58.3638 51.4524C58.2587 51.7791 58.172 52.0391 58.1038 52.2322H57.3368C57.3737 52.0504 57.422 51.8104 57.4817 51.5121C57.5413 51.2138 57.601 50.88 57.6606 50.5107C57.7231 50.1442 57.7743 49.7692 57.8141 49.3857L57.8652 48.9084H58.9561ZM67.0239 50.2209C66.3819 50.2209 65.835 50.0462 65.3833 49.6967C64.9316 49.3445 64.5864 48.8345 64.3478 48.1669C64.1092 47.4964 63.9898 46.6868 63.9898 45.7379C63.9898 44.7947 64.1092 43.9893 64.3478 43.3217C64.5893 42.6513 64.9359 42.1399 65.3876 41.7876C65.8421 41.4325 66.3876 41.255 67.0239 41.255C67.6603 41.255 68.2043 41.4325 68.656 41.7876C69.1106 42.1399 69.4572 42.6513 69.6958 43.3217C69.9373 43.9893 70.058 44.7947 70.058 45.7379C70.058 46.6868 69.9387 47.4964 69.7001 48.1669C69.4614 48.8345 69.1163 49.3445 68.6646 49.6967C68.2128 50.0462 67.666 50.2209 67.0239 50.2209ZM67.0239 49.2834C67.6603 49.2834 68.1546 48.9766 68.5069 48.3629C68.8592 47.7493 69.0353 46.8743 69.0353 45.7379C69.0353 44.9822 68.9543 44.3388 68.7924 43.8075C68.6333 43.2763 68.4032 42.8714 68.1021 42.593C67.8038 42.3146 67.4444 42.1754 67.0239 42.1754C66.3932 42.1754 65.9003 42.4865 65.5452 43.1087C65.1901 43.728 65.0126 44.6044 65.0126 45.7379C65.0126 46.4936 65.0921 47.1357 65.2512 47.6641C65.4103 48.1925 65.639 48.5945 65.9373 48.87C66.2384 49.1456 66.6006 49.2834 67.0239 49.2834ZM73.8421 45.7379C73.8421 46.8118 73.7015 47.8004 73.4202 48.7038C73.1418 49.6044 72.7427 50.4339 72.2228 51.1925H71.3364C71.541 50.9112 71.7313 50.5646 71.9074 50.1527C72.0864 49.7436 72.2427 49.2947 72.3762 48.8061C72.5097 48.3146 72.6134 47.8075 72.6873 47.2848C72.764 46.7592 72.8023 46.2436 72.8023 45.7379C72.8023 45.0618 72.737 44.3757 72.6063 43.6797C72.4756 42.9837 72.2995 42.3374 72.0779 41.7408C71.8563 41.1442 71.6092 40.6584 71.3364 40.2834H72.2228C72.7427 41.0419 73.1418 41.8729 73.4202 42.7763C73.7015 43.6768 73.8421 44.6641 73.8421 45.7379ZM77.542 48.9084L77.4739 49.3686C77.4256 49.6925 77.3517 50.0391 77.2523 50.4084C77.1557 50.7777 77.0548 51.1257 76.9497 51.4524C76.8446 51.7791 76.7579 52.0391 76.6898 52.2322H75.9227C75.9597 52.0504 76.0079 51.8104 76.0676 51.5121C76.1273 51.2138 76.1869 50.88 76.2466 50.5107C76.3091 50.1442 76.3602 49.7692 76.4 49.3857L76.4511 48.9084H77.542ZM8.73593 60.7379C8.73593 59.6641 8.87513 58.6768 9.15354 57.7763C9.43479 56.8729 9.83536 56.0419 10.3552 55.2834H11.2416C11.0371 55.5646 10.8453 55.9112 10.6663 56.3232C10.4902 56.7322 10.3354 57.1825 10.2018 57.674C10.0683 58.1626 9.9632 58.6683 9.8865 59.1911C9.81263 59.7138 9.7757 60.2294 9.7757 60.7379C9.7757 61.4141 9.84104 62.1001 9.97172 62.7962C10.1024 63.4922 10.2785 64.1385 10.5001 64.7351C10.7217 65.3317 10.9689 65.8175 11.2416 66.1925H10.3552C9.83536 65.4339 9.43479 64.6044 9.15354 63.7038C8.87513 62.8004 8.73593 61.8118 8.73593 60.7379ZM15.7768 56.3743V65.1016H14.7199V57.4822H14.6688L12.5381 58.897V57.8232L14.7199 56.3743H15.7768ZM19.2881 63.9084L19.2199 64.3686C19.1717 64.6925 19.0978 65.0391 18.9984 65.4084C18.9018 65.7777 18.8009 66.1257 18.6958 66.4524C18.5907 66.7791 18.504 67.0391 18.4359 67.2322H17.6688C17.7057 67.0504 17.754 66.8104 17.8137 66.5121C17.8734 66.2138 17.933 65.88 17.9927 65.5107C18.0552 65.1442 18.1063 64.7692 18.1461 64.3857L18.1972 63.9084H19.2881ZM27.356 65.2209C26.7139 65.2209 26.167 65.0462 25.7153 64.6967C25.2636 64.3445 24.9185 63.8345 24.6798 63.1669C24.4412 62.4964 24.3219 61.6868 24.3219 60.7379C24.3219 59.7947 24.4412 58.9893 24.6798 58.3217C24.9213 57.6513 25.2679 57.1399 25.7196 56.7876C26.1741 56.4325 26.7196 56.255 27.356 56.255C27.9923 56.255 28.5364 56.4325 28.9881 56.7876C29.4426 57.1399 29.7892 57.6513 30.0278 58.3217C30.2693 58.9893 30.39 59.7947 30.39 60.7379C30.39 61.6868 30.2707 62.4964 30.0321 63.1669C29.7935 63.8345 29.4483 64.3445 28.9966 64.6967C28.5449 65.0462 27.998 65.2209 27.356 65.2209ZM27.356 64.2834C27.9923 64.2834 28.4866 63.9766 28.8389 63.3629C29.1912 62.7493 29.3673 61.8743 29.3673 60.7379C29.3673 59.9822 29.2864 59.3388 29.1244 58.8075C28.9653 58.2763 28.7352 57.8714 28.4341 57.593C28.1358 57.3146 27.7764 57.1754 27.356 57.1754C26.7253 57.1754 26.2324 57.4865 25.8773 58.1087C25.5222 58.728 25.3446 59.6044 25.3446 60.7379C25.3446 61.4936 25.4241 62.1357 25.5832 62.6641C25.7423 63.1925 25.971 63.5945 26.2693 63.87C26.5704 64.1456 26.9327 64.2834 27.356 64.2834ZM33.2217 63.9084L33.1535 64.3686C33.1052 64.6925 33.0314 65.0391 32.932 65.4084C32.8354 65.7777 32.7345 66.1257 32.6294 66.4524C32.5243 66.7791 32.4376 67.0391 32.3695 67.2322H31.6024C31.6393 67.0504 31.6876 66.8104 31.7473 66.5121C31.807 66.2138 31.8666 65.88 31.9263 65.5107C31.9888 65.1442 32.0399 64.7692 32.0797 64.3857L32.1308 63.9084H33.2217ZM38.443 65.1016V64.3345L41.3236 61.1811C41.6617 60.8118 41.9401 60.4908 42.1589 60.218C42.3776 59.9425 42.5396 59.6839 42.6447 59.4425C42.7526 59.1982 42.8066 58.9425 42.8066 58.6754C42.8066 58.3686 42.7327 58.103 42.585 57.8786C42.4401 57.6541 42.2413 57.4808 41.9884 57.3587C41.7356 57.2365 41.4515 57.1754 41.1361 57.1754C40.8009 57.1754 40.5083 57.245 40.2583 57.3842C40.0111 57.5206 39.8194 57.7124 39.683 57.9595C39.5495 58.2067 39.4827 58.4964 39.4827 58.8288H38.4771C38.4771 58.3175 38.5949 57.8686 38.8307 57.4822C39.0665 57.0959 39.3876 56.7947 39.7938 56.5788C40.2029 56.3629 40.6617 56.255 41.1702 56.255C41.6816 56.255 42.1347 56.3629 42.5296 56.5788C42.9245 56.7947 43.2342 57.0859 43.4586 57.4524C43.683 57.8189 43.7952 58.2266 43.7952 58.6754C43.7952 58.9964 43.737 59.3104 43.6205 59.6172C43.5069 59.9212 43.308 60.2607 43.0239 60.6357C42.7427 61.0078 42.3521 61.4624 41.8521 61.9993L39.8918 64.0959V64.1641H43.9486V65.1016H38.443ZM47.2256 63.9084L47.1574 64.3686C47.1092 64.6925 47.0353 65.0391 46.9359 65.4084C46.8393 65.7777 46.7384 66.1257 46.6333 66.4524C46.5282 66.7791 46.4415 67.0391 46.3734 67.2322H45.6063C45.6432 67.0504 45.6915 66.8104 45.7512 66.5121C45.8109 66.2138 45.8705 65.88 45.9302 65.5107C45.9927 65.1442 46.0438 64.7692 46.0836 64.3857L46.1347 63.9084H47.2256ZM55.2935 65.2209C54.6514 65.2209 54.1045 65.0462 53.6528 64.6967C53.2011 64.3445 52.856 63.8345 52.6173 63.1669C52.3787 62.4964 52.2594 61.6868 52.2594 60.7379C52.2594 59.7947 52.3787 58.9893 52.6173 58.3217C52.8588 57.6513 53.2054 57.1399 53.6571 56.7876C54.1116 56.4325 54.6571 56.255 55.2935 56.255C55.9298 56.255 56.4739 56.4325 56.9256 56.7876C57.3801 57.1399 57.7267 57.6513 57.9653 58.3217C58.2068 58.9893 58.3275 59.7947 58.3275 60.7379C58.3275 61.6868 58.2082 62.4964 57.9696 63.1669C57.731 63.8345 57.3858 64.3445 56.9341 64.6967C56.4824 65.0462 55.9355 65.2209 55.2935 65.2209ZM55.2935 64.2834C55.9298 64.2834 56.4241 63.9766 56.7764 63.3629C57.1287 62.7493 57.3048 61.8743 57.3048 60.7379C57.3048 59.9822 57.2239 59.3388 57.0619 58.8075C56.9028 58.2763 56.6727 57.8714 56.3716 57.593C56.0733 57.3146 55.7139 57.1754 55.2935 57.1754C54.6628 57.1754 54.1699 57.4865 53.8148 58.1087C53.4597 58.728 53.2821 59.6044 53.2821 60.7379C53.2821 61.4936 53.3616 62.1357 53.5207 62.6641C53.6798 63.1925 53.9085 63.5945 54.2068 63.87C54.5079 64.1456 54.8702 64.2834 55.2935 64.2834ZM61.1592 63.9084L61.091 64.3686C61.0427 64.6925 60.9689 65.0391 60.8695 65.4084C60.7729 65.7777 60.672 66.1257 60.5669 66.4524C60.4618 66.7791 60.3751 67.0391 60.307 67.2322H59.5399C59.5768 67.0504 59.6251 66.8104 59.6848 66.5121C59.7445 66.2138 59.8041 65.88 59.8638 65.5107C59.9263 65.1442 59.9774 64.7692 60.0172 64.3857L60.0683 63.9084H61.1592ZM69.4486 56.3743V65.1016H68.3918V57.4822H68.3407L66.21 58.897V57.8232L68.3918 56.3743H69.4486ZM74.1234 60.7379C74.1234 61.8118 73.9827 62.8004 73.7015 63.7038C73.4231 64.6044 73.0239 65.4339 72.504 66.1925H71.6177C71.8222 65.9112 72.0126 65.5646 72.1887 65.1527C72.3677 64.7436 72.5239 64.2947 72.6574 63.8061C72.791 63.3146 72.8947 62.8075 72.9685 62.2848C73.0452 61.7592 73.0836 61.2436 73.0836 60.7379C73.0836 60.0618 73.0182 59.3757 72.8876 58.6797C72.7569 57.9837 72.5807 57.3374 72.3592 56.7408C72.1376 56.1442 71.8904 55.6584 71.6177 55.2834H72.504C73.0239 56.0419 73.4231 56.8729 73.7015 57.7763C73.9827 58.6768 74.1234 59.6641 74.1234 60.7379ZM77.8233 63.9084L77.7551 64.3686C77.7068 64.6925 77.6329 65.0391 77.5335 65.4084C77.4369 65.7777 77.3361 66.1257 77.231 66.4524C77.1258 66.7791 77.0392 67.0391 76.971 67.2322H76.204C76.2409 67.0504 76.2892 66.8104 76.3489 66.5121C76.4085 66.2138 76.4682 65.88 76.5278 65.5107C76.5903 65.1442 76.6415 64.7692 76.6812 64.3857L76.7324 63.9084H77.8233ZM8.73593 75.7379C8.73593 74.6641 8.87513 73.6768 9.15354 72.7763C9.43479 71.8729 9.83536 71.0419 10.3552 70.2834H11.2416C11.0371 70.5646 10.8453 70.9112 10.6663 71.3232C10.4902 71.7322 10.3354 72.1825 10.2018 72.674C10.0683 73.1626 9.9632 73.6683 9.8865 74.1911C9.81263 74.7138 9.7757 75.2294 9.7757 75.7379C9.7757 76.4141 9.84104 77.1001 9.97172 77.7962C10.1024 78.4922 10.2785 79.1385 10.5001 79.7351C10.7217 80.3317 10.9689 80.8175 11.2416 81.1925H10.3552C9.83536 80.4339 9.43479 79.6044 9.15354 78.7038C8.87513 77.8004 8.73593 76.8118 8.73593 75.7379ZM15.5552 80.2209C14.9131 80.2209 14.3663 80.0462 13.9146 79.6967C13.4628 79.3445 13.1177 78.8345 12.879 78.1669C12.6404 77.4964 12.5211 76.6868 12.5211 75.7379C12.5211 74.7947 12.6404 73.9893 12.879 73.3217C13.1205 72.6513 13.4671 72.1399 13.9188 71.7876C14.3734 71.4325 14.9188 71.255 15.5552 71.255C16.1915 71.255 16.7356 71.4325 17.1873 71.7876C17.6418 72.1399 17.9884 72.6513 18.2271 73.3217C18.4685 73.9893 18.5893 74.7947 18.5893 75.7379C18.5893 76.6868 18.4699 77.4964 18.2313 78.1669C17.9927 78.8345 17.6475 79.3445 17.1958 79.6967C16.7441 80.0462 16.1972 80.2209 15.5552 80.2209ZM15.5552 79.2834C16.1915 79.2834 16.6859 78.9766 17.0381 78.3629C17.3904 77.7493 17.5665 76.8743 17.5665 75.7379C17.5665 74.9822 17.4856 74.3388 17.3236 73.8075C17.1646 73.2763 16.9344 72.8714 16.6333 72.593C16.335 72.3146 15.9756 72.1754 15.5552 72.1754C14.9245 72.1754 14.4316 72.4865 14.0765 73.1087C13.7214 73.728 13.5438 74.6044 13.5438 75.7379C13.5438 76.4936 13.6234 77.1357 13.7824 77.6641C13.9415 78.1925 14.1702 78.5945 14.4685 78.87C14.7697 79.1456 15.1319 79.2834 15.5552 79.2834ZM21.4209 78.9084L21.3528 79.3686C21.3045 79.6925 21.2306 80.0391 21.1312 80.4084C21.0346 80.7777 20.9337 81.1257 20.8286 81.4524C20.7235 81.7791 20.6369 82.0391 20.5687 82.2322H19.8016C19.8386 82.0504 19.8869 81.8104 19.9465 81.5121C20.0062 81.2138 20.0658 80.88 20.1255 80.5107C20.188 80.1442 20.2391 79.7692 20.2789 79.3857L20.33 78.9084H21.4209ZM29.7104 71.3743V80.1016H28.6535V72.4822H28.6024L26.4717 73.897V72.8232L28.6535 71.3743H29.7104ZM33.2217 78.9084L33.1535 79.3686C33.1052 79.6925 33.0314 80.0391 32.932 80.4084C32.8354 80.7777 32.7345 81.1257 32.6294 81.4524C32.5243 81.7791 32.4376 82.0391 32.3695 82.2322H31.6024C31.6393 82.0504 31.6876 81.8104 31.7473 81.5121C31.807 81.2138 31.8666 80.88 31.9263 80.5107C31.9888 80.1442 32.0399 79.7692 32.0797 79.3857L32.1308 78.9084H33.2217ZM41.2896 80.2209C40.6475 80.2209 40.1006 80.0462 39.6489 79.6967C39.1972 79.3445 38.8521 78.8345 38.6134 78.1669C38.3748 77.4964 38.2555 76.6868 38.2555 75.7379C38.2555 74.7947 38.3748 73.9893 38.6134 73.3217C38.8549 72.6513 39.2015 72.1399 39.6532 71.7876C40.1077 71.4325 40.6532 71.255 41.2896 71.255C41.9259 71.255 42.4699 71.4325 42.9217 71.7876C43.3762 72.1399 43.7228 72.6513 43.9614 73.3217C44.2029 73.9893 44.3236 74.7947 44.3236 75.7379C44.3236 76.6868 44.2043 77.4964 43.9657 78.1669C43.7271 78.8345 43.3819 79.3445 42.9302 79.6967C42.4785 80.0462 41.9316 80.2209 41.2896 80.2209ZM41.2896 79.2834C41.9259 79.2834 42.4202 78.9766 42.7725 78.3629C43.1248 77.7493 43.3009 76.8743 43.3009 75.7379C43.3009 74.9822 43.2199 74.3388 43.058 73.8075C42.8989 73.2763 42.6688 72.8714 42.3677 72.593C42.0694 72.3146 41.71 72.1754 41.2896 72.1754C40.6589 72.1754 40.166 72.4865 39.8109 73.1087C39.4557 73.728 39.2782 74.6044 39.2782 75.7379C39.2782 76.4936 39.3577 77.1357 39.5168 77.6641C39.6759 78.1925 39.9046 78.5945 40.2029 78.87C40.504 79.1456 40.8663 79.2834 41.2896 79.2834ZM47.1553 78.9084L47.0871 79.3686C47.0388 79.6925 46.965 80.0391 46.8655 80.4084C46.769 80.7777 46.6681 81.1257 46.563 81.4524C46.4579 81.7791 46.3712 82.0391 46.303 82.2322H45.536C45.5729 82.0504 45.6212 81.8104 45.6809 81.5121C45.7405 81.2138 45.8002 80.88 45.8599 80.5107C45.9224 80.1442 45.9735 79.7692 46.0133 79.3857L46.0644 78.9084H47.1553ZM55.4447 71.3743V80.1016H54.3879V72.4822H54.3368L52.2061 73.897V72.8232L54.3879 71.3743H55.4447ZM58.9561 78.9084L58.8879 79.3686C58.8396 79.6925 58.7658 80.0391 58.6663 80.4084C58.5697 80.7777 58.4689 81.1257 58.3638 81.4524C58.2587 81.7791 58.172 82.0391 58.1038 82.2322H57.3368C57.3737 82.0504 57.422 81.8104 57.4817 81.5121C57.5413 81.2138 57.601 80.88 57.6606 80.5107C57.7231 80.1442 57.7743 79.7692 57.8141 79.3857L57.8652 78.9084H58.9561ZM67.0239 80.2209C66.3819 80.2209 65.835 80.0462 65.3833 79.6967C64.9316 79.3445 64.5864 78.8345 64.3478 78.1669C64.1092 77.4964 63.9898 76.6868 63.9898 75.7379C63.9898 74.7947 64.1092 73.9893 64.3478 73.3217C64.5893 72.6513 64.9359 72.1399 65.3876 71.7876C65.8421 71.4325 66.3876 71.255 67.0239 71.255C67.6603 71.255 68.2043 71.4325 68.656 71.7876C69.1106 72.1399 69.4572 72.6513 69.6958 73.3217C69.9373 73.9893 70.058 74.7947 70.058 75.7379C70.058 76.6868 69.9387 77.4964 69.7001 78.1669C69.4614 78.8345 69.1163 79.3445 68.6646 79.6967C68.2128 80.0462 67.666 80.2209 67.0239 80.2209ZM67.0239 79.2834C67.6603 79.2834 68.1546 78.9766 68.5069 78.3629C68.8592 77.7493 69.0353 76.8743 69.0353 75.7379C69.0353 74.9822 68.9543 74.3388 68.7924 73.8075C68.6333 73.2763 68.4032 72.8714 68.1021 72.593C67.8038 72.3146 67.4444 72.1754 67.0239 72.1754C66.3932 72.1754 65.9003 72.4865 65.5452 73.1087C65.1901 73.728 65.0126 74.6044 65.0126 75.7379C65.0126 76.4936 65.0921 77.1357 65.2512 77.6641C65.4103 78.1925 65.639 78.5945 65.9373 78.87C66.2384 79.1456 66.6006 79.2834 67.0239 79.2834ZM73.8421 75.7379C73.8421 76.8118 73.7015 77.8004 73.4202 78.7038C73.1418 79.6044 72.7427 80.4339 72.2228 81.1925H71.3364C71.541 80.9112 71.7313 80.5646 71.9074 80.1527C72.0864 79.7436 72.2427 79.2947 72.3762 78.8061C72.5097 78.3146 72.6134 77.8075 72.6873 77.2848C72.764 76.7592 72.8023 76.2436 72.8023 75.7379C72.8023 75.0618 72.737 74.3757 72.6063 73.6797C72.4756 72.9837 72.2995 72.3374 72.0779 71.7408C71.8563 71.1442 71.6092 70.6584 71.3364 70.2834H72.2228C72.7427 71.0419 73.1418 71.8729 73.4202 72.7763C73.7015 73.6768 73.8421 74.6641 73.8421 75.7379ZM77.542 78.9084L77.4739 79.3686C77.4256 79.6925 77.3517 80.0391 77.2523 80.4084C77.1557 80.7777 77.0548 81.1257 76.9497 81.4524C76.8446 81.7791 76.7579 82.0391 76.6898 82.2322H75.9227C75.9597 82.0504 76.0079 81.8104 76.0676 81.5121C76.1273 81.2138 76.1869 80.88 76.2466 80.5107C76.3091 80.1442 76.3602 79.7692 76.4 79.3857L76.4511 78.9084H77.542ZM8.73593 90.7379C8.73593 89.6641 8.87513 88.6768 9.15354 87.7763C9.43479 86.8729 9.83536 86.0419 10.3552 85.2834H11.2416C11.0371 85.5646 10.8453 85.9112 10.6663 86.3232C10.4902 86.7322 10.3354 87.1825 10.2018 87.674C10.0683 88.1626 9.9632 88.6683 9.8865 89.1911C9.81263 89.7138 9.7757 90.2294 9.7757 90.7379C9.7757 91.4141 9.84104 92.1001 9.97172 92.7962C10.1024 93.4922 10.2785 94.1385 10.5001 94.7351C10.7217 95.3317 10.9689 95.8175 11.2416 96.1925H10.3552C9.83536 95.4339 9.43479 94.6044 9.15354 93.7038C8.87513 92.8004 8.73593 91.8118 8.73593 90.7379ZM15.5552 95.2209C14.9131 95.2209 14.3663 95.0462 13.9146 94.6967C13.4628 94.3445 13.1177 93.8345 12.879 93.1669C12.6404 92.4964 12.5211 91.6868 12.5211 90.7379C12.5211 89.7947 12.6404 88.9893 12.879 88.3217C13.1205 87.6513 13.4671 87.1399 13.9188 86.7876C14.3734 86.4325 14.9188 86.255 15.5552 86.255C16.1915 86.255 16.7356 86.4325 17.1873 86.7876C17.6418 87.1399 17.9884 87.6513 18.2271 88.3217C18.4685 88.9893 18.5893 89.7947 18.5893 90.7379C18.5893 91.6868 18.4699 92.4964 18.2313 93.1669C17.9927 93.8345 17.6475 94.3445 17.1958 94.6967C16.7441 95.0462 16.1972 95.2209 15.5552 95.2209ZM15.5552 94.2834C16.1915 94.2834 16.6859 93.9766 17.0381 93.3629C17.3904 92.7493 17.5665 91.8743 17.5665 90.7379C17.5665 89.9822 17.4856 89.3388 17.3236 88.8075C17.1646 88.2763 16.9344 87.8714 16.6333 87.593C16.335 87.3146 15.9756 87.1754 15.5552 87.1754C14.9245 87.1754 14.4316 87.4865 14.0765 88.1087C13.7214 88.728 13.5438 89.6044 13.5438 90.7379C13.5438 91.4936 13.6234 92.1357 13.7824 92.6641C13.9415 93.1925 14.1702 93.5945 14.4685 93.87C14.7697 94.1456 15.1319 94.2834 15.5552 94.2834ZM21.4209 93.9084L21.3528 94.3686C21.3045 94.6925 21.2306 95.0391 21.1312 95.4084C21.0346 95.7777 20.9337 96.1257 20.8286 96.4524C20.7235 96.7791 20.6369 97.0391 20.5687 97.2322H19.8016C19.8386 97.0504 19.8869 96.8104 19.9465 96.5121C20.0062 96.2138 20.0658 95.88 20.1255 95.5107C20.188 95.1442 20.2391 94.7692 20.2789 94.3857L20.33 93.9084H21.4209ZM29.4888 95.2209C28.8467 95.2209 28.2998 95.0462 27.8481 94.6967C27.3964 94.3445 27.0513 93.8345 26.8126 93.1669C26.574 92.4964 26.4547 91.6868 26.4547 90.7379C26.4547 89.7947 26.574 88.9893 26.8126 88.3217C27.0541 87.6513 27.4007 87.1399 27.8524 86.7876C28.307 86.4325 28.8524 86.255 29.4888 86.255C30.1251 86.255 30.6692 86.4325 31.1209 86.7876C31.5754 87.1399 31.922 87.6513 32.1606 88.3217C32.4021 88.9893 32.5229 89.7947 32.5229 90.7379C32.5229 91.6868 32.4035 92.4964 32.1649 93.1669C31.9263 93.8345 31.5811 94.3445 31.1294 94.6967C30.6777 95.0462 30.1308 95.2209 29.4888 95.2209ZM29.4888 94.2834C30.1251 94.2834 30.6195 93.9766 30.9717 93.3629C31.324 92.7493 31.5001 91.8743 31.5001 90.7379C31.5001 89.9822 31.4192 89.3388 31.2572 88.8075C31.0981 88.2763 30.868 87.8714 30.5669 87.593C30.2686 87.3146 29.9092 87.1754 29.4888 87.1754C28.8581 87.1754 28.3652 87.4865 28.0101 88.1087C27.655 88.728 27.4774 89.6044 27.4774 90.7379C27.4774 91.4936 27.557 92.1357 27.716 92.6641C27.8751 93.1925 28.1038 93.5945 28.4021 93.87C28.7033 94.1456 29.0655 94.2834 29.4888 94.2834ZM35.3545 93.9084L35.2864 94.3686C35.2381 94.6925 35.1642 95.0391 35.0648 95.4084C34.9682 95.7777 34.8673 96.1257 34.7622 96.4524C34.6571 96.7791 34.5704 97.0391 34.5023 97.2322H33.7352C33.7722 97.0504 33.8204 96.8104 33.8801 96.5121C33.9398 96.2138 33.9994 95.88 34.0591 95.5107C34.1216 95.1442 34.1727 94.7692 34.2125 94.3857L34.2636 93.9084H35.3545ZM43.644 86.3743V95.1016H42.5871V87.4822H42.536L40.4053 88.897V87.8232L42.5871 86.3743H43.644ZM47.1553 93.9084L47.0871 94.3686C47.0388 94.6925 46.965 95.0391 46.8655 95.4084C46.769 95.7777 46.6681 96.1257 46.563 96.4524C46.4579 96.7791 46.3712 97.0391 46.303 97.2322H45.536C45.5729 97.0504 45.6212 96.8104 45.6809 96.5121C45.7405 96.2138 45.8002 95.88 45.8599 95.5107C45.9224 95.1442 45.9735 94.7692 46.0133 94.3857L46.0644 93.9084H47.1553ZM55.2231 95.2209C54.5811 95.2209 54.0342 95.0462 53.5825 94.6967C53.1308 94.3445 52.7856 93.8345 52.547 93.1669C52.3084 92.4964 52.1891 91.6868 52.1891 90.7379C52.1891 89.7947 52.3084 88.9893 52.547 88.3217C52.7885 87.6513 53.1351 87.1399 53.5868 86.7876C54.0413 86.4325 54.5868 86.255 55.2231 86.255C55.8595 86.255 56.4035 86.4325 56.8552 86.7876C57.3098 87.1399 57.6564 87.6513 57.895 88.3217C58.1365 88.9893 58.2572 89.7947 58.2572 90.7379C58.2572 91.6868 58.1379 92.4964 57.8993 93.1669C57.6606 93.8345 57.3155 94.3445 56.8638 94.6967C56.4121 95.0462 55.8652 95.2209 55.2231 95.2209ZM55.2231 94.2834C55.8595 94.2834 56.3538 93.9766 56.7061 93.3629C57.0584 92.7493 57.2345 91.8743 57.2345 90.7379C57.2345 89.9822 57.1535 89.3388 56.9916 88.8075C56.8325 88.2763 56.6024 87.8714 56.3013 87.593C56.003 87.3146 55.6436 87.1754 55.2231 87.1754C54.5925 87.1754 54.0996 87.4865 53.7445 88.1087C53.3893 88.728 53.2118 89.6044 53.2118 90.7379C53.2118 91.4936 53.2913 92.1357 53.4504 92.6641C53.6095 93.1925 53.8382 93.5945 54.1365 93.87C54.4376 94.1456 54.7998 94.2834 55.2231 94.2834ZM61.0889 93.9084L61.0207 94.3686C60.9724 94.6925 60.8986 95.0391 60.7991 95.4084C60.7025 95.7777 60.6017 96.1257 60.4966 96.4524C60.3915 96.7791 60.3048 97.0391 60.2366 97.2322H59.4696C59.5065 97.0504 59.5548 96.8104 59.6145 96.5121C59.6741 96.2138 59.7338 95.88 59.7935 95.5107C59.856 95.1442 59.9071 94.7692 59.9469 94.3857L59.998 93.9084H61.0889ZM69.1567 95.2209C68.5147 95.2209 67.9678 95.0462 67.5161 94.6967C67.0644 94.3445 66.7192 93.8345 66.4806 93.1669C66.242 92.4964 66.1226 91.6868 66.1226 90.7379C66.1226 89.7947 66.242 88.9893 66.4806 88.3217C66.7221 87.6513 67.0687 87.1399 67.5204 86.7876C67.9749 86.4325 68.5204 86.255 69.1567 86.255C69.7931 86.255 70.3371 86.4325 70.7888 86.7876C71.2434 87.1399 71.59 87.6513 71.8286 88.3217C72.0701 88.9893 72.1908 89.7947 72.1908 90.7379C72.1908 91.6868 72.0715 92.4964 71.8329 93.1669C71.5942 93.8345 71.2491 94.3445 70.7974 94.6967C70.3457 95.0462 69.7988 95.2209 69.1567 95.2209ZM69.1567 94.2834C69.7931 94.2834 70.2874 93.9766 70.6397 93.3629C70.992 92.7493 71.1681 91.8743 71.1681 90.7379C71.1681 89.9822 71.0871 89.3388 70.9252 88.8075C70.7661 88.2763 70.536 87.8714 70.2349 87.593C69.9366 87.3146 69.5772 87.1754 69.1567 87.1754C68.5261 87.1754 68.0332 87.4865 67.678 88.1087C67.3229 88.728 67.1454 89.6044 67.1454 90.7379C67.1454 91.4936 67.2249 92.1357 67.384 92.6641C67.5431 93.1925 67.7718 93.5945 68.0701 93.87C68.3712 94.1456 68.7334 94.2834 69.1567 94.2834ZM75.9749 90.7379C75.9749 91.8118 75.8343 92.8004 75.553 93.7038C75.2746 94.6044 74.8755 95.4339 74.3556 96.1925H73.4692C73.6738 95.9112 73.8641 95.5646 74.0403 95.1527C74.2192 94.7436 74.3755 94.2947 74.509 93.8061C74.6425 93.3146 74.7462 92.8075 74.8201 92.2848C74.8968 91.7592 74.9351 91.2436 74.9351 90.7379C74.9351 90.0618 74.8698 89.3757 74.7391 88.6797C74.6084 87.9837 74.4323 87.3374 74.2107 86.7408C73.9891 86.1442 73.742 85.6584 73.4692 85.2834H74.3556C74.8755 86.0419 75.2746 86.8729 75.553 87.7763C75.8343 88.6768 75.9749 89.6641 75.9749 90.7379ZM80.3226 90.7379C80.3226 91.8118 80.182 92.8004 79.9007 93.7038C79.6223 94.6044 79.2231 95.4339 78.7033 96.1925H77.8169C78.0214 95.9112 78.2118 95.5646 78.3879 95.1527C78.5669 94.7436 78.7231 94.2947 78.8567 93.8061C78.9902 93.3146 79.0939 92.8075 79.1677 92.2848C79.2445 91.7592 79.2828 91.2436 79.2828 90.7379C79.2828 90.0618 79.2175 89.3757 79.0868 88.6797C78.9561 87.9837 78.78 87.3374 78.5584 86.7408C78.3368 86.1442 78.0896 85.6584 77.8169 85.2834H78.7033C79.2231 86.0419 79.6223 86.8729 79.9007 87.7763C80.182 88.6768 80.3226 89.6641 80.3226 90.7379Z" fill="#006CA9"/>
<rect x="106.5" y="11.5" width="99" height="99" stroke="#737370"/>
<line x1="106" y1="30.5" x2="206.005" y2="30.5" stroke="#737370"/>
<line x1="125.5" y1="111.008" x2="125.5" y2="11.0028" stroke="#737370"/>
<line x1="185.5" y1="111.008" x2="185.5" y2="11.0028" stroke="#737370"/>
<line x1="165.5" y1="111.008" x2="165.5" y2="11.0028" stroke="#737370"/>
<line x1="145.5" y1="111.008" x2="145.5" y2="11.0028" stroke="#737370"/>
<line x1="106" y1="90.5" x2="206.005" y2="90.5" stroke="#737370"/>
<line x1="106" y1="70.5" x2="206.005" y2="70.5" stroke="#737370"/>
<line x1="106" y1="50.5" x2="206.005" y2="50.5" stroke="#737370"/>
<path d="M115.466 25.1534C115.051 25.1534 114.675 25.0753 114.336 24.919C113.998 24.7599 113.73 24.5312 113.531 24.233C113.332 23.9318 113.233 23.5682 113.233 23.142C113.233 22.767 113.307 22.4631 113.454 22.2301C113.602 21.9943 113.8 21.8097 114.047 21.6761C114.294 21.5426 114.567 21.4432 114.865 21.3778C115.166 21.3097 115.469 21.2557 115.773 21.2159C116.17 21.1648 116.493 21.1264 116.74 21.1009C116.99 21.0724 117.172 21.0256 117.285 20.9602C117.402 20.8949 117.46 20.7812 117.46 20.6193V20.5852C117.46 20.1648 117.345 19.8381 117.115 19.6051C116.888 19.3722 116.542 19.2557 116.079 19.2557C115.599 19.2557 115.223 19.3608 114.95 19.571C114.677 19.7812 114.486 20.0057 114.375 20.2443L113.42 19.9034C113.591 19.5057 113.818 19.196 114.102 18.9744C114.389 18.75 114.702 18.5937 115.04 18.5057C115.381 18.4148 115.716 18.3693 116.045 18.3693C116.256 18.3693 116.497 18.3949 116.77 18.446C117.045 18.4943 117.311 18.5952 117.567 18.7486C117.825 18.902 118.04 19.1335 118.21 19.4432C118.381 19.7528 118.466 20.1676 118.466 20.6875V25H117.46V24.1136H117.409C117.341 24.2557 117.227 24.4077 117.068 24.5696C116.909 24.7315 116.697 24.8693 116.433 24.983C116.169 25.0966 115.846 25.1534 115.466 25.1534ZM115.619 24.25C116.017 24.25 116.352 24.1719 116.625 24.0156C116.9 23.8594 117.108 23.6577 117.247 23.4105C117.389 23.1634 117.46 22.9034 117.46 22.6307V21.7102C117.417 21.7614 117.324 21.8082 117.179 21.8509C117.037 21.8906 116.872 21.9261 116.684 21.9574C116.5 21.9858 116.319 22.0114 116.143 22.0341C115.97 22.054 115.829 22.071 115.721 22.0852C115.46 22.1193 115.216 22.1747 114.988 22.2514C114.764 22.3253 114.582 22.4375 114.443 22.5881C114.307 22.7358 114.238 22.9375 114.238 23.1932C114.238 23.5426 114.368 23.8068 114.626 23.9858C114.888 24.1619 115.219 24.25 115.619 24.25Z" fill="#737370"/>
<path d="M194.228 105.455C194.058 105.455 193.906 105.44 193.772 105.412C193.639 105.386 193.547 105.361 193.495 105.335L193.751 104.449C193.995 104.511 194.211 104.534 194.399 104.517C194.586 104.5 194.752 104.416 194.897 104.266C195.045 104.118 195.18 103.878 195.302 103.545L195.49 103.034L193.069 96.4545H194.16L195.967 101.67H196.035L197.842 96.4545H198.933L196.154 103.955C196.029 104.293 195.875 104.572 195.69 104.794C195.505 105.018 195.291 105.185 195.047 105.293C194.805 105.401 194.532 105.455 194.228 105.455Z" fill="#737370"/>
<path d="M174.43 97.4545L175.998 100.131L177.567 97.4545H178.726L176.612 100.727L178.726 104H177.567L175.998 101.46L174.43 104H173.271L175.351 100.727L173.271 97.4545H174.43Z" fill="#737370"/>
<path d="M153.528 104L151.534 97.4545H152.591L154.006 102.466H154.074L155.472 97.4545H156.545L157.926 102.449H157.994L159.409 97.4545H160.466L158.472 104H157.483L156.051 98.9716H155.949L154.517 104H153.528Z" fill="#737370"/>
<path d="M138.933 97.4545L136.512 104H135.49L133.069 97.4545H134.16L135.967 102.67H136.035L137.842 97.4545H138.933Z" fill="#737370"/>
<path d="M117.559 101.324V97.4545H118.565V104H117.559V102.892H117.491C117.338 103.224 117.099 103.507 116.775 103.74C116.451 103.97 116.042 104.085 115.548 104.085C115.139 104.085 114.775 103.996 114.457 103.817C114.139 103.635 113.889 103.362 113.707 102.999C113.525 102.632 113.434 102.17 113.434 101.614V97.4545H114.44V101.545C114.44 102.023 114.573 102.403 114.84 102.688C115.11 102.972 115.454 103.114 115.872 103.114C116.122 103.114 116.376 103.05 116.634 102.922C116.896 102.794 117.115 102.598 117.291 102.334C117.47 102.07 117.559 101.733 117.559 101.324Z" fill="#737370"/>
<path d="M197.587 77.4545V78.3068H194.195V77.4545H197.587ZM195.184 75.8864H196.19V82.125C196.19 82.4091 196.231 82.6222 196.313 82.7642C196.398 82.9034 196.506 82.9972 196.637 83.0455C196.771 83.0909 196.911 83.1136 197.059 83.1136C197.17 83.1136 197.261 83.108 197.332 83.0966C197.403 83.0824 197.46 83.071 197.502 83.0625L197.707 83.9659C197.638 83.9915 197.543 84.017 197.421 84.0426C197.299 84.071 197.144 84.0852 196.957 84.0852C196.673 84.0852 196.394 84.0241 196.121 83.902C195.852 83.7798 195.627 83.5938 195.448 83.3438C195.272 83.0938 195.184 82.7784 195.184 82.3977V75.8864Z" fill="#737370"/>
<path d="M178.422 78.9205L177.519 79.1761C177.462 79.0256 177.378 78.8793 177.267 78.7372C177.159 78.5923 177.012 78.473 176.824 78.3793C176.637 78.2855 176.396 78.2386 176.104 78.2386C175.703 78.2386 175.369 78.331 175.102 78.5156C174.838 78.6974 174.706 78.929 174.706 79.2102C174.706 79.4602 174.797 79.6577 174.979 79.8026C175.161 79.9474 175.445 80.0682 175.831 80.1648L176.803 80.4034C177.388 80.5455 177.824 80.7628 178.111 81.0554C178.398 81.3452 178.541 81.7187 178.541 82.1761C178.541 82.5511 178.433 82.8864 178.218 83.1818C178.004 83.4773 177.706 83.7102 177.323 83.8807C176.939 84.0511 176.493 84.1364 175.985 84.1364C175.317 84.1364 174.764 83.9915 174.327 83.7017C173.889 83.4119 173.612 82.9886 173.496 82.4318L174.45 82.1932C174.541 82.5455 174.713 82.8097 174.966 82.9858C175.222 83.1619 175.556 83.25 175.968 83.25C176.436 83.25 176.808 83.1506 177.084 82.9517C177.362 82.75 177.502 82.5085 177.502 82.2273C177.502 82 177.422 81.8097 177.263 81.6562C177.104 81.5 176.86 81.3835 176.53 81.3068L175.439 81.0511C174.84 80.9091 174.399 80.6889 174.118 80.3906C173.84 80.0895 173.7 79.7131 173.7 79.2614C173.7 78.892 173.804 78.5653 174.012 78.2812C174.222 77.9972 174.507 77.7741 174.868 77.6122C175.232 77.4503 175.644 77.3693 176.104 77.3693C176.752 77.3693 177.26 77.5114 177.629 77.7955C178.002 78.0795 178.266 78.4545 178.422 78.9205Z" fill="#737370"/>
<path d="M154.688 84V77.4545H155.66V78.4432H155.728C155.847 78.1193 156.063 77.8565 156.376 77.6548C156.688 77.4531 157.04 77.3523 157.432 77.3523C157.506 77.3523 157.599 77.3537 157.709 77.3565C157.82 77.3594 157.904 77.3636 157.961 77.3693V78.392C157.927 78.3835 157.849 78.3707 157.726 78.3537C157.607 78.3338 157.481 78.3239 157.347 78.3239C157.029 78.3239 156.745 78.3906 156.495 78.5241C156.248 78.6548 156.052 78.8366 155.907 79.0696C155.765 79.2997 155.694 79.5625 155.694 79.858V84H154.688Z" fill="#737370"/>
<path d="M137.73 87.4545V83.9943H137.645C137.571 84.1136 137.466 84.2642 137.33 84.446C137.193 84.625 136.999 84.7855 136.746 84.9276C136.493 85.0668 136.156 85.1364 135.736 85.1364C135.19 85.1364 134.709 84.9986 134.291 84.723C133.874 84.4446 133.547 84.0526 133.311 83.5469C133.075 83.0384 132.957 82.4375 132.957 81.7443C132.957 81.0568 133.075 80.4602 133.311 79.9545C133.547 79.4489 133.875 79.0582 134.295 78.7827C134.716 78.5071 135.202 78.3693 135.753 78.3693C136.179 78.3693 136.516 78.4403 136.763 78.5824C137.013 78.7216 137.203 78.8807 137.334 79.0597C137.467 79.2358 137.571 79.3807 137.645 79.4943H137.764V78.4545H138.736V87.4545H137.73ZM135.872 84.233C136.276 84.233 136.616 84.1278 136.895 83.9176C137.173 83.7045 137.385 83.4105 137.53 83.0355C137.675 82.6577 137.747 82.2216 137.747 81.7273C137.747 81.2386 137.676 80.8111 137.534 80.4446C137.392 80.0753 137.182 79.7884 136.903 79.5838C136.625 79.3764 136.281 79.2727 135.872 79.2727C135.446 79.2727 135.091 79.3821 134.807 79.6009C134.526 79.8168 134.314 80.1108 134.172 80.483C134.033 80.8523 133.963 81.267 133.963 81.7273C133.963 82.1932 134.034 82.6165 134.176 82.9972C134.321 83.375 134.534 83.6761 134.815 83.9006C135.099 84.1222 135.452 84.233 135.872 84.233Z" fill="#737370"/>
<path d="M113.264 86.4545V77.4545H114.236V78.4943H114.355C114.429 78.3807 114.531 78.2358 114.662 78.0597C114.795 77.8807 114.986 77.7216 115.233 77.5824C115.483 77.4403 115.821 77.3693 116.247 77.3693C116.798 77.3693 117.284 77.5071 117.705 77.7827C118.125 78.0582 118.453 78.4489 118.689 78.9545C118.925 79.4602 119.043 80.0568 119.043 80.7443C119.043 81.4375 118.925 82.0384 118.689 82.5469C118.453 83.0526 118.126 83.4446 117.709 83.723C117.291 83.9986 116.81 84.1364 116.264 84.1364C115.844 84.1364 115.507 84.0668 115.254 83.9276C115.001 83.7855 114.807 83.625 114.67 83.446C114.534 83.2642 114.429 83.1136 114.355 82.9943H114.27V86.4545H113.264ZM114.253 80.7273C114.253 81.2216 114.325 81.6577 114.47 82.0355C114.615 82.4105 114.827 82.7045 115.105 82.9176C115.384 83.1278 115.724 83.233 116.128 83.233C116.548 83.233 116.899 83.1222 117.18 82.9006C117.464 82.6761 117.678 82.375 117.82 81.9972C117.964 81.6165 118.037 81.1932 118.037 80.7273C118.037 80.267 117.966 79.8523 117.824 79.483C117.685 79.1108 117.473 78.8168 117.189 78.6009C116.908 78.3821 116.554 78.2727 116.128 78.2727C115.719 78.2727 115.375 78.3764 115.097 78.5838C114.818 78.7884 114.608 79.0753 114.466 79.4446C114.324 79.8111 114.253 80.2386 114.253 80.7273Z" fill="#737370"/>
<path d="M195.999 64.1364C195.409 64.1364 194.89 63.9957 194.444 63.7145C194.001 63.4332 193.654 63.0398 193.404 62.5341C193.157 62.0284 193.034 61.4375 193.034 60.7614C193.034 60.0795 193.157 59.4844 193.404 58.9759C193.654 58.4673 194.001 58.0724 194.444 57.7912C194.89 57.5099 195.409 57.3693 195.999 57.3693C196.59 57.3693 197.107 57.5099 197.551 57.7912C197.997 58.0724 198.343 58.4673 198.59 58.9759C198.84 59.4844 198.965 60.0795 198.965 60.7614C198.965 61.4375 198.84 62.0284 198.59 62.5341C198.343 63.0398 197.997 63.4332 197.551 63.7145C197.107 63.9957 196.59 64.1364 195.999 64.1364ZM195.999 63.233C196.448 63.233 196.818 63.1179 197.107 62.8878C197.397 62.6577 197.612 62.3551 197.751 61.9801C197.89 61.6051 197.96 61.1989 197.96 60.7614C197.96 60.3239 197.89 59.9162 197.751 59.5384C197.612 59.1605 197.397 58.8551 197.107 58.6222C196.818 58.3892 196.448 58.2727 195.999 58.2727C195.551 58.2727 195.181 58.3892 194.892 58.6222C194.602 58.8551 194.387 59.1605 194.248 59.5384C194.109 59.9162 194.039 60.3239 194.039 60.7614C194.039 61.1989 194.109 61.6051 194.248 61.9801C194.387 62.3551 194.602 62.6577 194.892 62.8878C195.181 63.1179 195.551 63.233 195.999 63.233Z" fill="#737370"/>
<path d="M174.416 60.0625V64H173.411V57.4545H174.382V58.4773H174.468C174.621 58.1449 174.854 57.8778 175.166 57.6761C175.479 57.4716 175.882 57.3693 176.377 57.3693C176.82 57.3693 177.208 57.4602 177.54 57.642C177.872 57.821 178.131 58.0938 178.316 58.4602C178.5 58.8239 178.593 59.2841 178.593 59.8409V64H177.587V59.9091C177.587 59.3949 177.453 58.9943 177.186 58.7074C176.919 58.4176 176.553 58.2727 176.087 58.2727C175.766 58.2727 175.479 58.3423 175.226 58.4815C174.976 58.6207 174.779 58.8239 174.634 59.0909C174.489 59.358 174.416 59.6818 174.416 60.0625Z" fill="#737370"/>
<path d="M151.706 64V57.4545H152.677V58.4773H152.762C152.899 58.1278 153.119 57.8565 153.423 57.6634C153.727 57.4673 154.092 57.3693 154.518 57.3693C154.95 57.3693 155.309 57.4673 155.596 57.6634C155.886 57.8565 156.112 58.1278 156.274 58.4773H156.342C156.51 58.1392 156.761 57.8707 157.096 57.6719C157.431 57.4702 157.833 57.3693 158.302 57.3693C158.887 57.3693 159.366 57.5526 159.738 57.919C160.11 58.2827 160.297 58.8494 160.297 59.6193V64H159.291V59.6193C159.291 59.1364 159.159 58.7912 158.895 58.5838C158.63 58.3764 158.319 58.2727 157.961 58.2727C157.501 58.2727 157.145 58.4119 156.892 58.6903C156.639 58.9659 156.512 59.3153 156.512 59.7386V64H155.49V59.517C155.49 59.1449 155.369 58.8452 155.127 58.6179C154.886 58.3878 154.575 58.2727 154.194 58.2727C153.933 58.2727 153.689 58.3423 153.461 58.4815C153.237 58.6207 153.055 58.8139 152.916 59.0611C152.779 59.3054 152.711 59.5881 152.711 59.9091V64H151.706Z" fill="#737370"/>
<path d="M136.502 55.2727V64H135.497V55.2727H136.502Z" fill="#737370"/>
<path d="M114.594 61.6136L114.577 60.3693H114.782L117.645 57.4545H118.89L115.839 60.5398H115.753L114.594 61.6136ZM113.657 64V55.2727H114.662V64H113.657ZM117.816 64L115.259 60.7614L115.975 60.0625L119.094 64H117.816Z" fill="#737370"/>
<path d="M195.497 38.4545H196.502V45.4773C196.502 45.8807 196.433 46.2301 196.294 46.5256C196.157 46.821 195.95 47.0497 195.671 47.2116C195.396 47.3736 195.048 47.4545 194.627 47.4545C194.593 47.4545 194.559 47.4545 194.525 47.4545C194.491 47.4545 194.457 47.4545 194.423 47.4545V46.517C194.457 46.517 194.488 46.517 194.517 46.517C194.545 46.517 194.576 46.517 194.61 46.517C194.917 46.517 195.142 46.4261 195.284 46.2443C195.426 46.0653 195.497 45.8097 195.497 45.4773V38.4545ZM195.991 37.3636C195.795 37.3636 195.626 37.2969 195.484 37.1634C195.345 37.0298 195.275 36.8693 195.275 36.6818C195.275 36.4943 195.345 36.3338 195.484 36.2003C195.626 36.0668 195.795 36 195.991 36C196.187 36 196.355 36.0668 196.494 36.2003C196.636 36.3338 196.707 36.4943 196.707 36.6818C196.707 36.8693 196.636 37.0298 196.494 37.1634C196.355 37.2969 196.187 37.3636 195.991 37.3636Z" fill="#737370"/>
<path d="M175.497 45V38.4545H176.502V45H175.497ZM176.008 37.3636C175.812 37.3636 175.643 37.2969 175.501 37.1634C175.362 37.0298 175.292 36.8693 175.292 36.6818C175.292 36.4943 175.362 36.3338 175.501 36.2003C175.643 36.0668 175.812 36 176.008 36C176.204 36 176.372 36.0668 176.511 36.2003C176.653 36.3338 176.724 36.4943 176.724 36.6818C176.724 36.8693 176.653 37.0298 176.511 37.1634C176.372 37.2969 176.204 37.3636 176.008 37.3636Z" fill="#737370"/>
<path d="M154.381 41.0625V45H153.376V36.2727H154.381V39.4773H154.466C154.62 39.1392 154.85 38.8707 155.157 38.6719C155.466 38.4702 155.878 38.3693 156.393 38.3693C156.839 38.3693 157.229 38.4588 157.564 38.6378C157.9 38.8139 158.16 39.0852 158.344 39.4517C158.532 39.8153 158.626 40.2784 158.626 40.8409V45H157.62V40.9091C157.62 40.3892 157.485 39.9872 157.215 39.7031C156.948 39.4162 156.577 39.2727 156.103 39.2727C155.773 39.2727 155.478 39.3423 155.216 39.4815C154.958 39.6207 154.753 39.8239 154.603 40.0909C154.455 40.358 154.381 40.6818 154.381 41.0625Z" fill="#737370"/>
<path d="M135.906 46.5909C135.42 46.5909 135.003 46.5284 134.653 46.4034C134.304 46.2812 134.013 46.1193 133.78 45.9176C133.55 45.7188 133.366 45.5057 133.23 45.2784L134.031 44.7159C134.122 44.8352 134.237 44.9716 134.376 45.125C134.516 45.2812 134.706 45.4162 134.947 45.5298C135.192 45.6463 135.511 45.7045 135.906 45.7045C136.435 45.7045 136.871 45.5767 137.214 45.321C137.558 45.0653 137.73 44.6648 137.73 44.1193V42.7898H137.645C137.571 42.9091 137.466 43.0568 137.33 43.233C137.196 43.4062 137.003 43.5611 136.75 43.6974C136.5 43.831 136.162 43.8977 135.736 43.8977C135.207 43.8977 134.733 43.7727 134.312 43.5227C133.895 43.2727 133.564 42.9091 133.32 42.4318C133.078 41.9545 132.957 41.375 132.957 40.6932C132.957 40.0227 133.075 39.4389 133.311 38.9418C133.547 38.4418 133.875 38.0554 134.295 37.7827C134.716 37.5071 135.202 37.3693 135.753 37.3693C136.179 37.3693 136.517 37.4403 136.767 37.5824C137.02 37.7216 137.213 37.8807 137.347 38.0597C137.483 38.2358 137.588 38.3807 137.662 38.4943H137.764V37.4545H138.736V44.1875C138.736 44.75 138.608 45.2074 138.352 45.5597C138.099 45.9148 137.759 46.1747 137.33 46.3395C136.903 46.5071 136.429 46.5909 135.906 46.5909ZM135.872 42.9943C136.276 42.9943 136.616 42.902 136.895 42.7173C137.173 42.5327 137.385 42.267 137.53 41.9205C137.675 41.5739 137.747 41.1591 137.747 40.6761C137.747 40.2045 137.676 39.7884 137.534 39.4276C137.392 39.0668 137.182 38.7841 136.903 38.5795C136.625 38.375 136.281 38.2727 135.872 38.2727C135.446 38.2727 135.091 38.3807 134.807 38.5966C134.526 38.8125 134.314 39.1023 134.172 39.4659C134.033 39.8295 133.963 40.233 133.963 40.6761C133.963 41.1307 134.034 41.5327 134.176 41.8821C134.321 42.2287 134.534 42.5014 134.815 42.7003C135.099 42.8963 135.452 42.9943 135.872 42.9943Z" fill="#737370"/>
<path d="M117.673 38.4545V39.3068H114.145V38.4545H117.673ZM115.202 45V37.5511C115.202 37.1761 115.29 36.8636 115.466 36.6136C115.642 36.3636 115.871 36.1761 116.152 36.0511C116.433 35.9261 116.73 35.8636 117.042 35.8636C117.29 35.8636 117.491 35.8835 117.648 35.9233C117.804 35.9631 117.92 36 117.997 36.0341L117.707 36.9034C117.656 36.8864 117.585 36.8651 117.494 36.8395C117.406 36.8139 117.29 36.8011 117.145 36.8011C116.812 36.8011 116.572 36.8849 116.425 37.0526C116.28 37.2202 116.207 37.4659 116.207 37.7898V45H115.202Z" fill="#737370"/>
<path d="M196.173 25.1364C195.542 25.1364 194.998 24.9972 194.54 24.7188C194.086 24.4375 193.735 24.0455 193.488 23.5426C193.244 23.0369 193.121 22.4489 193.121 21.7784C193.121 21.108 193.244 20.517 193.488 20.0057C193.735 19.4915 194.079 19.0909 194.519 18.804C194.962 18.5142 195.479 18.3693 196.07 18.3693C196.411 18.3693 196.748 18.4261 197.08 18.5398C197.413 18.6534 197.715 18.8381 197.988 19.0938C198.261 19.3466 198.478 19.6818 198.64 20.0994C198.802 20.517 198.883 21.0312 198.883 21.642V22.0682H193.837V21.1989H197.86C197.86 20.8295 197.786 20.5 197.638 20.2102C197.494 19.9205 197.286 19.6918 197.016 19.5241C196.749 19.3565 196.434 19.2727 196.07 19.2727C195.67 19.2727 195.323 19.3722 195.031 19.571C194.741 19.767 194.518 20.0227 194.362 20.3381C194.205 20.6534 194.127 20.9915 194.127 21.3523V21.9318C194.127 22.4261 194.212 22.8452 194.383 23.1889C194.556 23.5298 194.796 23.7898 195.103 23.9688C195.41 24.1449 195.766 24.233 196.173 24.233C196.437 24.233 196.675 24.196 196.888 24.1222C197.104 24.0455 197.29 23.9318 197.447 23.7812C197.603 23.6278 197.724 23.4375 197.809 23.2102L198.781 23.483C198.678 23.8125 198.506 24.1023 198.265 24.3523C198.023 24.5994 197.725 24.7926 197.37 24.9318C197.015 25.0682 196.616 25.1364 196.173 25.1364Z" fill="#737370"/>
<path d="M175.665 25.1364C175.12 25.1364 174.638 24.9986 174.221 24.723C173.803 24.4446 173.477 24.0526 173.241 23.5469C173.005 23.0384 172.887 22.4375 172.887 21.7443C172.887 21.0568 173.005 20.4602 173.241 19.9545C173.477 19.4489 173.805 19.0582 174.225 18.7827C174.646 18.5071 175.131 18.3693 175.683 18.3693C176.109 18.3693 176.445 18.4403 176.692 18.5824C176.942 18.7216 177.133 18.8807 177.263 19.0597C177.397 19.2358 177.501 19.3807 177.575 19.4943H177.66V16.2727H178.665V25H177.694V23.9943H177.575C177.501 24.1136 177.396 24.2642 177.259 24.446C177.123 24.625 176.928 24.7855 176.675 24.9276C176.423 25.0668 176.086 25.1364 175.665 25.1364ZM175.802 24.233C176.205 24.233 176.546 24.1278 176.825 23.9176C177.103 23.7045 177.315 23.4105 177.46 23.0355C177.604 22.6577 177.677 22.2216 177.677 21.7273C177.677 21.2386 177.606 20.8111 177.464 20.4446C177.322 20.0753 177.112 19.7884 176.833 19.5838C176.555 19.3764 176.211 19.2727 175.802 19.2727C175.376 19.2727 175.021 19.3821 174.737 19.6009C174.455 19.8168 174.244 20.1108 174.102 20.483C173.962 20.8523 173.893 21.267 173.893 21.7273C173.893 22.1932 173.964 22.6165 174.106 22.9972C174.251 23.375 174.464 23.6761 174.745 23.9006C175.029 24.1222 175.381 24.233 175.802 24.233Z" fill="#737370"/>
<path d="M156.228 25.1364C155.614 25.1364 155.086 24.9915 154.643 24.7017C154.2 24.4119 153.859 24.0128 153.62 23.5043C153.381 22.9957 153.262 22.4148 153.262 21.7614C153.262 21.0966 153.384 20.5099 153.629 20.0014C153.876 19.4901 154.219 19.0909 154.66 18.804C155.103 18.5142 155.62 18.3693 156.211 18.3693C156.671 18.3693 157.086 18.4545 157.455 18.625C157.825 18.7955 158.127 19.0341 158.363 19.3409C158.599 19.6477 158.745 20.0057 158.802 20.4148H157.796C157.719 20.1165 157.549 19.8523 157.285 19.6222C157.023 19.3892 156.671 19.2727 156.228 19.2727C155.836 19.2727 155.492 19.375 155.197 19.5795C154.904 19.7812 154.675 20.0668 154.511 20.4361C154.349 20.8026 154.268 21.233 154.268 21.7273C154.268 22.233 154.347 22.6733 154.506 23.0483C154.668 23.4233 154.896 23.7145 155.188 23.9219C155.484 24.1293 155.83 24.233 156.228 24.233C156.489 24.233 156.727 24.1875 156.94 24.0966C157.153 24.0057 157.333 23.875 157.481 23.7045C157.629 23.5341 157.734 23.3295 157.796 23.0909H158.802C158.745 23.4773 158.604 23.8253 158.38 24.1349C158.158 24.4418 157.864 24.6861 157.498 24.8679C157.134 25.0469 156.711 25.1364 156.228 25.1364Z" fill="#737370"/>
<path d="M133.33 25V16.2727H134.336V19.4943H134.421C134.495 19.3807 134.597 19.2358 134.728 19.0597C134.862 18.8807 135.052 18.7216 135.299 18.5824C135.549 18.4403 135.887 18.3693 136.313 18.3693C136.864 18.3693 137.35 18.5071 137.771 18.7827C138.191 19.0582 138.519 19.4489 138.755 19.9545C138.991 20.4602 139.109 21.0568 139.109 21.7443C139.109 22.4375 138.991 23.0384 138.755 23.5469C138.519 24.0526 138.192 24.4446 137.775 24.723C137.357 24.9986 136.876 25.1364 136.33 25.1364C135.91 25.1364 135.573 25.0668 135.32 24.9276C135.067 24.7855 134.873 24.625 134.737 24.446C134.6 24.2642 134.495 24.1136 134.421 23.9943H134.302V25H133.33ZM134.319 21.7273C134.319 22.2216 134.391 22.6577 134.536 23.0355C134.681 23.4105 134.893 23.7045 135.171 23.9176C135.45 24.1278 135.79 24.233 136.194 24.233C136.614 24.233 136.965 24.1222 137.246 23.9006C137.531 23.6761 137.744 23.375 137.886 22.9972C138.031 22.6165 138.103 22.1932 138.103 21.7273C138.103 21.267 138.032 20.8523 137.89 20.483C137.751 20.1108 137.539 19.8168 137.255 19.6009C136.974 19.3821 136.62 19.2727 136.194 19.2727C135.785 19.2727 135.441 19.3764 135.163 19.5838C134.884 19.7884 134.674 20.0753 134.532 20.4446C134.39 20.8111 134.319 21.2386 134.319 21.7273Z" fill="#737370"/>
<path d="M232.171 56.2727V59.2727H231.233V56.2727H232.171ZM234.352 56.2727V59.2727H233.415V56.2727H234.352ZM238.8 65.1364C238.187 65.1364 237.658 64.9915 237.215 64.7017C236.772 64.4119 236.431 64.0128 236.192 63.5043C235.954 62.9957 235.834 62.4148 235.834 61.7614C235.834 61.0966 235.956 60.5099 236.201 60.0014C236.448 59.4901 236.792 59.0909 237.232 58.804C237.675 58.5142 238.192 58.3693 238.783 58.3693C239.243 58.3693 239.658 58.4545 240.028 58.625C240.397 58.7955 240.699 59.0341 240.935 59.3409C241.171 59.6477 241.317 60.0057 241.374 60.4148H240.368C240.292 60.1165 240.121 59.8523 239.857 59.6222C239.596 59.3892 239.243 59.2727 238.8 59.2727C238.408 59.2727 238.064 59.375 237.769 59.5795C237.476 59.7812 237.248 60.0668 237.083 60.4361C236.921 60.8026 236.84 61.233 236.84 61.7273C236.84 62.233 236.92 62.6733 237.079 63.0483C237.241 63.4233 237.468 63.7145 237.76 63.9219C238.056 64.1293 238.403 64.233 238.8 64.233C239.062 64.233 239.299 64.1875 239.512 64.0966C239.725 64.0057 239.905 63.875 240.053 63.7045C240.201 63.5341 240.306 63.3295 240.368 63.0909H241.374C241.317 63.4773 241.177 63.8253 240.952 64.1349C240.731 64.4418 240.437 64.6861 240.07 64.8679C239.706 65.0469 239.283 65.1364 238.8 65.1364ZM245.486 67.5909C245.001 67.5909 244.583 67.5284 244.233 67.4034C243.884 67.2812 243.593 67.1193 243.36 66.9176C243.13 66.7188 242.947 66.5057 242.81 66.2784L243.611 65.7159C243.702 65.8352 243.817 65.9716 243.956 66.125C244.096 66.2812 244.286 66.4162 244.528 66.5298C244.772 66.6463 245.091 66.7045 245.486 66.7045C246.015 66.7045 246.451 66.5767 246.795 66.321C247.138 66.0653 247.31 65.6648 247.31 65.1193V63.7898H247.225C247.151 63.9091 247.046 64.0568 246.91 64.233C246.776 64.4062 246.583 64.5611 246.33 64.6974C246.08 64.831 245.742 64.8977 245.316 64.8977C244.787 64.8977 244.313 64.7727 243.893 64.5227C243.475 64.2727 243.144 63.9091 242.9 63.4318C242.658 62.9545 242.537 62.375 242.537 61.6932C242.537 61.0227 242.655 60.4389 242.891 59.9418C243.127 59.4418 243.455 59.0554 243.876 58.7827C244.296 58.5071 244.782 58.3693 245.333 58.3693C245.759 58.3693 246.097 58.4403 246.347 58.5824C246.6 58.7216 246.793 58.8807 246.927 59.0597C247.063 59.2358 247.168 59.3807 247.242 59.4943H247.344V58.4545H248.316V65.1875C248.316 65.75 248.188 66.2074 247.932 66.5597C247.68 66.9148 247.339 67.1747 246.91 67.3395C246.483 67.5071 246.009 67.5909 245.486 67.5909ZM245.452 63.9943C245.856 63.9943 246.197 63.902 246.475 63.7173C246.753 63.5327 246.965 63.267 247.11 62.9205C247.255 62.5739 247.327 62.1591 247.327 61.6761C247.327 61.2045 247.256 60.7884 247.114 60.4276C246.972 60.0668 246.762 59.7841 246.483 59.5795C246.205 59.375 245.861 59.2727 245.452 59.2727C245.026 59.2727 244.671 59.3807 244.387 59.5966C244.106 59.8125 243.894 60.1023 243.752 60.4659C243.613 60.8295 243.543 61.233 243.543 61.6761C243.543 62.1307 243.614 62.5327 243.756 62.8821C243.901 63.2287 244.114 63.5014 244.395 63.7003C244.68 63.8963 245.032 63.9943 245.452 63.9943ZM250.157 65V58.4545H251.162V65H250.157ZM250.668 57.3636C250.472 57.3636 250.303 57.2969 250.161 57.1634C250.022 57.0298 249.952 56.8693 249.952 56.6818C249.952 56.4943 250.022 56.3338 250.161 56.2003C250.303 56.0668 250.472 56 250.668 56C250.864 56 251.032 56.0668 251.171 56.2003C251.313 56.3338 251.384 56.4943 251.384 56.6818C251.384 56.8693 251.313 57.0298 251.171 57.1634C251.032 57.2969 250.864 57.3636 250.668 57.3636ZM253.942 62.6136L253.925 61.3693H254.129L256.993 58.4545H258.237L255.186 61.5398H255.101L253.942 62.6136ZM253.004 65V56.2727H254.01V65H253.004ZM257.164 65L254.607 61.7614L255.323 61.0625L258.442 65H257.164ZM259.668 56.2727H260.93L263.895 63.517H263.998L266.964 56.2727H268.225V65H267.236V58.3693H267.151L264.424 65H263.469L260.742 58.3693H260.657V65H259.668V56.2727ZM272.867 65.1364C272.276 65.1364 271.757 64.9957 271.311 64.7145C270.868 64.4332 270.521 64.0398 270.271 63.5341C270.024 63.0284 269.901 62.4375 269.901 61.7614C269.901 61.0795 270.024 60.4844 270.271 59.9759C270.521 59.4673 270.868 59.0724 271.311 58.7912C271.757 58.5099 272.276 58.3693 272.867 58.3693C273.458 58.3693 273.975 58.5099 274.418 58.7912C274.864 59.0724 275.21 59.4673 275.458 59.9759C275.708 60.4844 275.833 61.0795 275.833 61.7614C275.833 62.4375 275.708 63.0284 275.458 63.5341C275.21 64.0398 274.864 64.4332 274.418 64.7145C273.975 64.9957 273.458 65.1364 272.867 65.1364ZM272.867 64.233C273.316 64.233 273.685 64.1179 273.975 63.8878C274.264 63.6577 274.479 63.3551 274.618 62.9801C274.757 62.6051 274.827 62.1989 274.827 61.7614C274.827 61.3239 274.757 60.9162 274.618 60.5384C274.479 60.1605 274.264 59.8551 273.975 59.6222C273.685 59.3892 273.316 59.2727 272.867 59.2727C272.418 59.2727 272.048 59.3892 271.759 59.6222C271.469 59.8551 271.254 60.1605 271.115 60.5384C270.976 60.9162 270.906 61.3239 270.906 61.7614C270.906 62.1989 270.976 62.6051 271.115 62.9801C271.254 63.3551 271.469 63.6577 271.759 63.8878C272.048 64.1179 272.418 64.233 272.867 64.233ZM281.834 67.4545V63.9943H281.748C281.675 64.1136 281.569 64.2642 281.433 64.446C281.297 64.625 281.102 64.7855 280.849 64.9276C280.596 65.0668 280.26 65.1364 279.839 65.1364C279.294 65.1364 278.812 64.9986 278.395 64.723C277.977 64.4446 277.65 64.0526 277.415 63.5469C277.179 63.0384 277.061 62.4375 277.061 61.7443C277.061 61.0568 277.179 60.4602 277.415 59.9545C277.65 59.4489 277.979 59.0582 278.399 58.7827C278.819 58.5071 279.305 58.3693 279.856 58.3693C280.282 58.3693 280.619 58.4403 280.866 58.5824C281.116 58.7216 281.307 58.8807 281.437 59.0597C281.571 59.2358 281.675 59.3807 281.748 59.4943H281.868V58.4545H282.839V67.4545H281.834ZM279.976 64.233C280.379 64.233 280.72 64.1278 280.998 63.9176C281.277 63.7045 281.488 63.4105 281.633 63.0355C281.778 62.6577 281.851 62.2216 281.851 61.7273C281.851 61.2386 281.78 60.8111 281.638 60.4446C281.496 60.0753 281.285 59.7884 281.007 59.5838C280.729 59.3764 280.385 59.2727 279.976 59.2727C279.55 59.2727 279.194 59.3821 278.91 59.6009C278.629 59.8168 278.417 60.1108 278.275 60.483C278.136 60.8523 278.067 61.267 278.067 61.7273C278.067 62.1932 278.138 62.6165 278.28 62.9972C278.425 63.375 278.638 63.6761 278.919 63.9006C279.203 64.1222 279.555 64.233 279.976 64.233ZM289.317 59.9205L288.413 60.1761C288.356 60.0256 288.273 59.8793 288.162 59.7372C288.054 59.5923 287.906 59.473 287.719 59.3793C287.531 59.2855 287.291 59.2386 286.998 59.2386C286.598 59.2386 286.264 59.331 285.997 59.5156C285.733 59.6974 285.601 59.929 285.601 60.2102C285.601 60.4602 285.692 60.6577 285.873 60.8026C286.055 60.9474 286.339 61.0682 286.726 61.1648L287.697 61.4034C288.282 61.5455 288.719 61.7628 289.006 62.0554C289.292 62.3452 289.436 62.7187 289.436 63.1761C289.436 63.5511 289.328 63.8864 289.112 64.1818C288.899 64.4773 288.601 64.7102 288.217 64.8807C287.834 65.0511 287.388 65.1364 286.879 65.1364C286.211 65.1364 285.659 64.9915 285.221 64.7017C284.784 64.4119 284.507 63.9886 284.39 63.4318L285.345 63.1932C285.436 63.5455 285.608 63.8097 285.861 63.9858C286.116 64.1619 286.45 64.25 286.862 64.25C287.331 64.25 287.703 64.1506 287.979 63.9517C288.257 63.75 288.396 63.5085 288.396 63.2273C288.396 63 288.317 62.8097 288.157 62.6562C287.998 62.5 287.754 62.3835 287.425 62.3068L286.334 62.0511C285.734 61.9091 285.294 61.6889 285.013 61.3906C284.734 61.0895 284.595 60.7131 284.595 60.2614C284.595 59.892 284.699 59.5653 284.906 59.2812C285.116 58.9972 285.402 58.7741 285.763 58.6122C286.126 58.4503 286.538 58.3693 286.998 58.3693C287.646 58.3693 288.155 58.5114 288.524 58.7955C288.896 59.0795 289.16 59.4545 289.317 59.9205ZM292.433 65L290.438 58.4545H291.495L292.91 63.4659H292.978L294.376 58.4545H295.45L296.83 63.4489H296.899L298.313 58.4545H299.37L297.376 65H296.387L294.955 59.9716H294.853L293.421 65H292.433ZM301.569 56.2727V59.2727H300.632V56.2727H301.569ZM303.751 56.2727V59.2727H302.813V56.2727H303.751Z" fill="#FA8F00"/>
<path d="M148.647 16.9233C148.902 16.8184 149.024 16.5264 148.92 16.2709L147.211 12.1079C147.106 11.8525 146.814 11.7304 146.559 11.8352C146.303 11.9401 146.181 12.2322 146.286 12.4876L147.805 16.188L144.104 17.7069C143.849 17.8117 143.727 18.1038 143.832 18.3593C143.936 18.6147 144.228 18.7368 144.484 18.632L148.647 16.9233ZM41.2702 23.4227C59.9726 11.4502 75.1028 4.99536 91.3373 3.93149C107.578 2.86719 124.99 7.19384 148.264 16.9221L148.65 15.9994C125.325 6.24975 107.742 1.85431 91.2719 2.93363C74.7947 4.0134 59.4962 10.5679 40.7311 22.5805L41.2702 23.4227Z" fill="#82D1F5"/>
<path d="M148.662 55.2761C148.892 55.1235 148.955 54.8133 148.802 54.5831L146.316 50.8323C146.163 50.6021 145.853 50.5392 145.623 50.6918C145.393 50.8444 145.33 51.1547 145.482 51.3848L147.693 54.7189L144.358 56.9289C144.128 57.0814 144.065 57.3917 144.218 57.6219C144.371 57.8521 144.681 57.915 144.911 57.7624L148.662 55.2761ZM46.0839 53.4907C87.1035 46.4876 109.496 47.4849 148.286 55.3494L148.485 54.3693C109.584 46.4824 87.0666 45.4794 45.9156 52.5049L46.0839 53.4907Z" fill="#82D1F5"/>
<circle cx="41" cy="31" r="8.5" stroke="#82D1F5"/>
<circle cx="116" cy="100" r="8.5" stroke="#82D1F5"/>
<circle cx="17" cy="91" r="8.5" stroke="#82D1F5"/>
<circle cx="155" cy="61" r="8.5" stroke="#82D1F5"/>
<circle cx="156" cy="22" r="8.5" stroke="#82D1F5"/>
<circle cx="41" cy="60" r="8.5" stroke="#82D1F5"/>
<path d="M238.184 55.4648C238.441 55.3631 238.567 55.0725 238.465 54.8158L236.807 50.6322C236.705 50.3755 236.415 50.2499 236.158 50.3516C235.901 50.4533 235.776 50.7439 235.878 51.0006L237.351 54.7193L233.632 56.1928C233.376 56.2945 233.25 56.5851 233.352 56.8418C233.453 57.0985 233.744 57.2242 234.001 57.1225L238.184 55.4648ZM163.802 23.4589L237.802 55.4589L238.198 54.5411L164.198 22.5411L163.802 23.4589Z" fill="#82D1F5"/>
<path d="M261.425 68.2637C261.57 68.0291 261.498 67.7208 261.264 67.5752L257.44 65.2018C257.206 65.0561 256.898 65.1283 256.752 65.3629C256.606 65.5975 256.678 65.9057 256.913 66.0514L260.311 68.1611L258.202 71.5595C258.056 71.7941 258.128 72.1024 258.363 72.248C258.597 72.3937 258.906 72.3215 259.051 72.0869L261.425 68.2637ZM158.886 68.4868C178.209 73.0144 193.475 75.427 209.064 75.4984C224.654 75.5697 240.543 73.2997 261.114 68.4869L260.886 67.5131C240.358 72.316 224.552 74.5693 209.069 74.4984C193.586 74.4275 178.401 72.0323 159.114 67.5132L158.886 68.4868Z" fill="#82D1F5"/>
<path d="M109.437 104.243C109.571 104.001 109.484 103.697 109.243 103.563L105.308 101.379C105.067 101.245 104.762 101.332 104.628 101.573C104.494 101.815 104.581 102.119 104.823 102.253L108.32 104.195L106.379 107.692C106.245 107.933 106.332 108.238 106.573 108.372C106.815 108.506 107.119 108.419 107.253 108.177L109.437 104.243ZM25.7656 98.4417C40.8164 106.429 52.992 110.434 65.7613 111.185C78.5211 111.935 91.8305 109.432 109.138 104.481L108.862 103.519C91.5875 108.462 78.4087 110.926 65.8199 110.186C53.2405 109.447 41.2071 105.505 26.2344 97.5583L25.7656 98.4417Z" fill="#82D1F5"/>
<path d="M256.487 95.1144C256.55 94.8455 256.383 94.5764 256.114 94.5133L251.734 93.4839C251.465 93.4208 251.196 93.5875 251.133 93.8563C251.069 94.1251 251.236 94.3943 251.505 94.4574L255.399 95.3724L254.484 99.2663C254.421 99.5351 254.587 99.8043 254.856 99.8674C255.125 99.9306 255.394 99.7639 255.457 99.4951L256.487 95.1144ZM120.855 106.479C152.333 116.016 175.4 119.951 196.003 118.141C216.618 116.33 234.716 108.773 256.263 95.4251L255.737 94.5749C234.262 107.878 216.317 115.352 195.916 117.145C175.502 118.938 152.581 115.047 121.145 105.521L120.855 106.479Z" fill="#82D1F5"/>
<path d="M263.873 95L266.991 98.1184L265.118 99.9912L262 96.8728L258.873 100L257 98.1272L260.127 95L257 91.8728L258.873 90L262 93.1272L265.127 90.0088L267 91.8816L263.873 95Z" fill="#737370"/>
</svg>
