<svg width="610" height="248" viewBox="0 0 610 248" fill="none" xmlns="http://www.w3.org/2000/svg">
<path d="M3.11834 60.6477C3.11834 58.5 3.39675 56.5256 3.95357 54.7244C4.51607 52.9176 5.31721 51.2557 6.35698 49.7386H8.12971C7.72061 50.3011 7.33709 50.9943 6.97914 51.8182C6.62686 52.6364 6.31721 53.5369 6.05016 54.5199C5.78311 55.4972 5.57289 56.5085 5.41948 57.554C5.27175 58.5994 5.19789 59.6307 5.19789 60.6477C5.19789 62 5.32857 63.3722 5.58993 64.7642C5.8513 66.1562 6.20357 67.4489 6.64675 68.642C7.08993 69.8352 7.58425 70.8068 8.12971 71.5568H6.35698C5.31721 70.0398 4.51607 68.3807 3.95357 66.5795C3.39675 64.7727 3.11834 62.7955 3.11834 60.6477ZM11.8137 60.6477C11.8137 58.5 12.0921 56.5256 12.6489 54.7244C13.2114 52.9176 14.0125 51.2557 15.0523 49.7386H16.825C16.4159 50.3011 16.0324 50.9943 15.6744 51.8182C15.3222 52.6364 15.0125 53.5369 14.7455 54.5199C14.4784 55.4972 14.2682 56.5085 14.1148 57.554C13.9671 58.5994 13.8932 59.6307 13.8932 60.6477C13.8932 62 14.0239 63.3722 14.2852 64.7642C14.5466 66.1562 14.8989 67.4489 15.3421 68.642C15.7852 69.8352 16.2796 70.8068 16.825 71.5568H15.0523C14.0125 70.0398 13.2114 68.3807 12.6489 66.5795C12.0921 64.7727 11.8137 62.7955 11.8137 60.6477ZM25.4521 69.6136C24.1681 69.6136 23.0743 69.2642 22.1709 68.5653C21.2675 67.8608 20.5771 66.8409 20.0999 65.5057C19.6226 64.1648 19.384 62.5455 19.384 60.6477C19.384 58.7614 19.6226 57.1506 20.0999 55.8153C20.5828 54.4744 21.276 53.4517 22.1794 52.7472C23.0885 52.0369 24.1794 51.6818 25.4521 51.6818C26.7249 51.6818 27.8129 52.0369 28.7164 52.7472C29.6254 53.4517 30.3186 54.4744 30.7959 55.8153C31.2789 57.1506 31.5203 58.7614 31.5203 60.6477C31.5203 62.5455 31.2817 64.1648 30.8044 65.5057C30.3271 66.8409 29.6368 67.8608 28.7334 68.5653C27.83 69.2642 26.7362 69.6136 25.4521 69.6136ZM25.4521 67.7386C26.7249 67.7386 27.7135 67.125 28.4181 65.8977C29.1226 64.6705 29.4749 62.9205 29.4749 60.6477C29.4749 59.1364 29.3129 57.8494 28.9891 56.7869C28.6709 55.7244 28.2107 54.9148 27.6084 54.358C27.0118 53.8011 26.2931 53.5227 25.4521 53.5227C24.1908 53.5227 23.205 54.1449 22.4948 55.3892C21.7845 56.6278 21.4294 58.3807 21.4294 60.6477C21.4294 62.1591 21.5885 63.4432 21.9067 64.5C22.2249 65.5568 22.6823 66.3608 23.2789 66.9119C23.8811 67.4631 24.6056 67.7386 25.4521 67.7386ZM37.1837 66.9886L37.0473 67.9091C36.9507 68.5568 36.803 69.25 36.6041 69.9886C36.411 70.7273 36.2093 71.4233 35.999 72.0767C35.7888 72.7301 35.6155 73.25 35.4791 73.6364H33.945C34.0189 73.2727 34.1155 72.7926 34.2348 72.196C34.3541 71.5994 34.4735 70.9318 34.5928 70.1932C34.7178 69.4602 34.82 68.7102 34.8996 67.9432L35.0019 66.9886H37.1837ZM53.3193 69.6136C52.0352 69.6136 50.9415 69.2642 50.0381 68.5653C49.1347 67.8608 48.4443 66.8409 47.9671 65.5057C47.4898 64.1648 47.2512 62.5455 47.2512 60.6477C47.2512 58.7614 47.4898 57.1506 47.9671 55.8153C48.45 54.4744 49.1432 53.4517 50.0466 52.7472C50.9557 52.0369 52.0466 51.6818 53.3193 51.6818C54.5921 51.6818 55.6801 52.0369 56.5835 52.7472C57.4926 53.4517 58.1858 54.4744 58.6631 55.8153C59.146 57.1506 59.3875 58.7614 59.3875 60.6477C59.3875 62.5455 59.1489 64.1648 58.6716 65.5057C58.1943 66.8409 57.504 67.8608 56.6006 68.5653C55.6972 69.2642 54.6034 69.6136 53.3193 69.6136ZM53.3193 67.7386C54.5921 67.7386 55.5807 67.125 56.2852 65.8977C56.9898 64.6705 57.3421 62.9205 57.3421 60.6477C57.3421 59.1364 57.1801 57.8494 56.8563 56.7869C56.5381 55.7244 56.0779 54.9148 55.4756 54.358C54.879 53.8011 54.1602 53.5227 53.3193 53.5227C52.058 53.5227 51.0722 54.1449 50.3619 55.3892C49.6517 56.6278 49.2966 58.3807 49.2966 60.6477C49.2966 62.1591 49.4557 63.4432 49.7739 64.5C50.0921 65.5568 50.5494 66.3608 51.146 66.9119C51.7483 67.4631 52.4727 67.7386 53.3193 67.7386ZM65.0509 66.9886L64.9145 67.9091C64.8179 68.5568 64.6702 69.25 64.4713 69.9886C64.2781 70.7273 64.0764 71.4233 63.8662 72.0767C63.656 72.7301 63.4827 73.25 63.3463 73.6364H61.8122C61.8861 73.2727 61.9827 72.7926 62.102 72.196C62.2213 71.5994 62.3406 70.9318 62.46 70.1932C62.585 69.4602 62.6872 68.7102 62.7668 67.9432L62.8691 66.9886H65.0509ZM81.6297 51.9205V69.375H79.5161V54.1364H79.4138L75.1524 56.9659V54.8182L79.5161 51.9205H81.6297ZM88.6524 66.9886L88.5161 67.9091C88.4195 68.5568 88.2718 69.25 88.0729 69.9886C87.8797 70.7273 87.678 71.4233 87.4678 72.0767C87.2575 72.7301 87.0843 73.25 86.9479 73.6364H85.4138C85.4877 73.2727 85.5843 72.7926 85.7036 72.196C85.8229 71.5994 85.9422 70.9318 86.0615 70.1932C86.1865 69.4602 86.2888 68.7102 86.3683 67.9432L86.4706 66.9886H88.6524ZM104.788 69.6136C103.504 69.6136 102.41 69.2642 101.507 68.5653C100.603 67.8608 99.9131 66.8409 99.4358 65.5057C98.9585 64.1648 98.7199 62.5455 98.7199 60.6477C98.7199 58.7614 98.9585 57.1506 99.4358 55.8153C99.9188 54.4744 100.612 53.4517 101.515 52.7472C102.424 52.0369 103.515 51.6818 104.788 51.6818C106.061 51.6818 107.149 52.0369 108.052 52.7472C108.961 53.4517 109.655 54.4744 110.132 55.8153C110.615 57.1506 110.856 58.7614 110.856 60.6477C110.856 62.5455 110.618 64.1648 110.14 65.5057C109.663 66.8409 108.973 67.8608 108.069 68.5653C107.166 69.2642 106.072 69.6136 104.788 69.6136ZM104.788 67.7386C106.061 67.7386 107.049 67.125 107.754 65.8977C108.459 64.6705 108.811 62.9205 108.811 60.6477C108.811 59.1364 108.649 57.8494 108.325 56.7869C108.007 55.7244 107.547 54.9148 106.944 54.358C106.348 53.8011 105.629 53.5227 104.788 53.5227C103.527 53.5227 102.541 54.1449 101.831 55.3892C101.12 56.6278 100.765 58.3807 100.765 60.6477C100.765 62.1591 100.924 63.4432 101.243 64.5C101.561 65.5568 102.018 66.3608 102.615 66.9119C103.217 67.4631 103.941 67.7386 104.788 67.7386ZM116.52 66.9886L116.383 67.9091C116.287 68.5568 116.139 69.25 115.94 69.9886C115.747 70.7273 115.545 71.4233 115.335 72.0767C115.125 72.7301 114.951 73.25 114.815 73.6364H113.281C113.355 73.2727 113.451 72.7926 113.571 72.196C113.69 71.5994 113.809 70.9318 113.929 70.1932C114.054 69.4602 114.156 68.7102 114.236 67.9432L114.338 66.9886H116.52ZM132.655 69.6136C131.371 69.6136 130.277 69.2642 129.374 68.5653C128.471 67.8608 127.78 66.8409 127.303 65.5057C126.826 64.1648 126.587 62.5455 126.587 60.6477C126.587 58.7614 126.826 57.1506 127.303 55.8153C127.786 54.4744 128.479 53.4517 129.383 52.7472C130.292 52.0369 131.383 51.6818 132.655 51.6818C133.928 51.6818 135.016 52.0369 135.919 52.7472C136.829 53.4517 137.522 54.4744 137.999 55.8153C138.482 57.1506 138.723 58.7614 138.723 60.6477C138.723 62.5455 138.485 64.1648 138.008 65.5057C137.53 66.8409 136.84 67.8608 135.937 68.5653C135.033 69.2642 133.939 69.6136 132.655 69.6136ZM132.655 67.7386C133.928 67.7386 134.917 67.125 135.621 65.8977C136.326 64.6705 136.678 62.9205 136.678 60.6477C136.678 59.1364 136.516 57.8494 136.192 56.7869C135.874 55.7244 135.414 54.9148 134.812 54.358C134.215 53.8011 133.496 53.5227 132.655 53.5227C131.394 53.5227 130.408 54.1449 129.698 55.3892C128.988 56.6278 128.633 58.3807 128.633 60.6477C128.633 62.1591 128.792 63.4432 129.11 64.5C129.428 65.5568 129.885 66.3608 130.482 66.9119C131.084 67.4631 131.809 67.7386 132.655 67.7386ZM146.292 60.6477C146.292 62.7955 146.01 64.7727 145.448 66.5795C144.891 68.3807 144.093 70.0398 143.053 71.5568H141.28C141.689 70.9943 142.07 70.3011 142.422 69.4773C142.78 68.6591 143.093 67.7614 143.36 66.7841C143.627 65.8011 143.834 64.7869 143.982 63.7415C144.135 62.6903 144.212 61.6591 144.212 60.6477C144.212 59.2955 144.081 57.9233 143.82 56.5312C143.559 55.1392 143.206 53.8466 142.763 52.6534C142.32 51.4602 141.826 50.4886 141.28 49.7386H143.053C144.093 51.2557 144.891 52.9176 145.448 54.7244C146.01 56.5256 146.292 58.5 146.292 60.6477ZM153.691 66.9886L153.555 67.9091C153.459 68.5568 153.311 69.25 153.112 69.9886C152.919 70.7273 152.717 71.4233 152.507 72.0767C152.297 72.7301 152.123 73.25 151.987 73.6364H150.453C150.527 73.2727 150.623 72.7926 150.743 72.196C150.862 71.5994 150.981 70.9318 151.101 70.1932C151.226 69.4602 151.328 68.7102 151.407 67.9432L151.51 66.9886H153.691ZM16.6183 89.6477C16.6183 87.5 16.8968 85.5256 17.4536 83.7244C18.0161 81.9176 18.8172 80.2557 19.857 78.7386H21.6297C21.2206 79.3011 20.8371 79.9943 20.4791 80.8182C20.1269 81.6364 19.8172 82.5369 19.5502 83.5199C19.2831 84.4972 19.0729 85.5085 18.9195 86.554C18.7718 87.5994 18.6979 88.6307 18.6979 89.6477C18.6979 91 18.8286 92.3722 19.0899 93.7642C19.3513 95.1562 19.7036 96.4489 20.1468 97.642C20.5899 98.8352 21.0843 99.8068 21.6297 100.557H19.857C18.8172 99.0398 18.0161 97.3807 17.4536 95.5795C16.8968 93.7727 16.6183 91.7955 16.6183 89.6477ZM30.2568 98.6136C28.9727 98.6136 27.879 98.2642 26.9756 97.5653C26.0722 96.8608 25.3818 95.8409 24.9046 94.5057C24.4273 93.1648 24.1887 91.5455 24.1887 89.6477C24.1887 87.7614 24.4273 86.1506 24.9046 84.8153C25.3875 83.4744 26.0807 82.4517 26.9841 81.7472C27.8932 81.0369 28.9841 80.6818 30.2568 80.6818C31.5296 80.6818 32.6176 81.0369 33.521 81.7472C34.4301 82.4517 35.1233 83.4744 35.6006 84.8153C36.0835 86.1506 36.325 87.7614 36.325 89.6477C36.325 91.5455 36.0864 93.1648 35.6091 94.5057C35.1318 95.8409 34.4415 96.8608 33.5381 97.5653C32.6347 98.2642 31.5409 98.6136 30.2568 98.6136ZM30.2568 96.7386C31.5296 96.7386 32.5182 96.125 33.2227 94.8977C33.9273 93.6705 34.2796 91.9205 34.2796 89.6477C34.2796 88.1364 34.1176 86.8494 33.7938 85.7869C33.4756 84.7244 33.0154 83.9148 32.4131 83.358C31.8165 82.8011 31.0977 82.5227 30.2568 82.5227C28.9955 82.5227 28.0097 83.1449 27.2994 84.3892C26.5892 85.6278 26.2341 87.3807 26.2341 89.6477C26.2341 91.1591 26.3932 92.4432 26.7114 93.5C27.0296 94.5568 27.4869 95.3608 28.0835 95.9119C28.6858 96.4631 29.4102 96.7386 30.2568 96.7386ZM41.9884 95.9886L41.852 96.9091C41.7554 97.5568 41.6077 98.25 41.4088 98.9886C41.2156 99.7273 41.0139 100.423 40.8037 101.077C40.5935 101.73 40.4202 102.25 40.2838 102.636H38.7497C38.8236 102.273 38.9202 101.793 39.0395 101.196C39.1588 100.599 39.2781 99.9318 39.3975 99.1932C39.5225 98.4602 39.6247 97.7102 39.7043 96.9432L39.8066 95.9886H41.9884ZM58.5672 80.9205V98.375H56.4536V83.1364H56.3513L52.0899 85.9659V83.8182L56.4536 80.9205H58.5672ZM65.5899 95.9886L65.4536 96.9091C65.357 97.5568 65.2093 98.25 65.0104 98.9886C64.8172 99.7273 64.6155 100.423 64.4053 101.077C64.195 101.73 64.0218 102.25 63.8854 102.636H62.3513C62.4252 102.273 62.5218 101.793 62.6411 101.196C62.7604 100.599 62.8797 99.9318 62.999 99.1932C63.124 98.4602 63.2263 97.7102 63.3058 96.9432L63.4081 95.9886H65.5899ZM81.7256 98.6136C80.4415 98.6136 79.3477 98.2642 78.4443 97.5653C77.5409 96.8608 76.8506 95.8409 76.3733 94.5057C75.896 93.1648 75.6574 91.5455 75.6574 89.6477C75.6574 87.7614 75.896 86.1506 76.3733 84.8153C76.8563 83.4744 77.5494 82.4517 78.4529 81.7472C79.3619 81.0369 80.4529 80.6818 81.7256 80.6818C82.9983 80.6818 84.0864 81.0369 84.9898 81.7472C85.8989 82.4517 86.5921 83.4744 87.0693 84.8153C87.5523 86.1506 87.7938 87.7614 87.7938 89.6477C87.7938 91.5455 87.5551 93.1648 87.0779 94.5057C86.6006 95.8409 85.9102 96.8608 85.0068 97.5653C84.1034 98.2642 83.0097 98.6136 81.7256 98.6136ZM81.7256 96.7386C82.9983 96.7386 83.9869 96.125 84.6915 94.8977C85.396 93.6705 85.7483 91.9205 85.7483 89.6477C85.7483 88.1364 85.5864 86.8494 85.2625 85.7869C84.9443 84.7244 84.4841 83.9148 83.8818 83.358C83.2852 82.8011 82.5665 82.5227 81.7256 82.5227C80.4642 82.5227 79.4784 83.1449 78.7682 84.3892C78.058 85.6278 77.7029 87.3807 77.7029 89.6477C77.7029 91.1591 77.8619 92.4432 78.1801 93.5C78.4983 94.5568 78.9557 95.3608 79.5523 95.9119C80.1546 96.4631 80.879 96.7386 81.7256 96.7386ZM93.4571 95.9886L93.3208 96.9091C93.2242 97.5568 93.0764 98.25 92.8776 98.9886C92.6844 99.7273 92.4827 100.423 92.2725 101.077C92.0622 101.73 91.8889 102.25 91.7526 102.636H90.2185C90.2923 102.273 90.3889 101.793 90.5083 101.196C90.6276 100.599 90.7469 99.9318 90.8662 99.1932C90.9912 98.4602 91.0935 97.7102 91.173 96.9432L91.2753 95.9886H93.4571ZM110.036 80.9205V98.375H107.922V83.1364H107.82L103.559 85.9659V83.8182L107.922 80.9205H110.036ZM117.059 95.9886L116.922 96.9091C116.826 97.5568 116.678 98.25 116.479 98.9886C116.286 99.7273 116.084 100.423 115.874 101.077C115.664 101.73 115.491 102.25 115.354 102.636H113.82C113.894 102.273 113.991 101.793 114.11 101.196C114.229 100.599 114.348 99.9318 114.468 99.1932C114.593 98.4602 114.695 97.7102 114.775 96.9432L114.877 95.9886H117.059ZM133.194 98.6136C131.91 98.6136 130.816 98.2642 129.913 97.5653C129.01 96.8608 128.319 95.8409 127.842 94.5057C127.365 93.1648 127.126 91.5455 127.126 89.6477C127.126 87.7614 127.365 86.1506 127.842 84.8153C128.325 83.4744 129.018 82.4517 129.922 81.7472C130.831 81.0369 131.922 80.6818 133.194 80.6818C134.467 80.6818 135.555 81.0369 136.459 81.7472C137.368 82.4517 138.061 83.4744 138.538 84.8153C139.021 86.1506 139.263 87.7614 139.263 89.6477C139.263 91.5455 139.024 93.1648 138.547 94.5057C138.069 95.8409 137.379 96.8608 136.476 97.5653C135.572 98.2642 134.478 98.6136 133.194 98.6136ZM133.194 96.7386C134.467 96.7386 135.456 96.125 136.16 94.8977C136.865 93.6705 137.217 91.9205 137.217 89.6477C137.217 88.1364 137.055 86.8494 136.731 85.7869C136.413 84.7244 135.953 83.9148 135.351 83.358C134.754 82.8011 134.035 82.5227 133.194 82.5227C131.933 82.5227 130.947 83.1449 130.237 84.3892C129.527 85.6278 129.172 87.3807 129.172 89.6477C129.172 91.1591 129.331 92.4432 129.649 93.5C129.967 94.5568 130.424 95.3608 131.021 95.9119C131.623 96.4631 132.348 96.7386 133.194 96.7386ZM146.831 89.6477C146.831 91.7955 146.549 93.7727 145.987 95.5795C145.43 97.3807 144.632 99.0398 143.592 100.557H141.819C142.228 99.9943 142.609 99.3011 142.961 98.4773C143.319 97.6591 143.632 96.7614 143.899 95.7841C144.166 94.8011 144.373 93.7869 144.521 92.7415C144.674 91.6903 144.751 90.6591 144.751 89.6477C144.751 88.2955 144.62 86.9233 144.359 85.5312C144.098 84.1392 143.745 82.8466 143.302 81.6534C142.859 80.4602 142.365 79.4886 141.819 78.7386H143.592C144.632 80.2557 145.43 81.9176 145.987 83.7244C146.549 85.5256 146.831 87.5 146.831 89.6477ZM154.231 95.9886L154.094 96.9091C153.998 97.5568 153.85 98.25 153.651 98.9886C153.458 99.7273 153.256 100.423 153.046 101.077C152.836 101.73 152.662 102.25 152.526 102.636H150.992C151.066 102.273 151.162 101.793 151.282 101.196C151.401 100.599 151.52 99.9318 151.64 99.1932C151.765 98.4602 151.867 97.7102 151.946 96.9432L152.049 95.9886H154.231ZM16.6183 118.648C16.6183 116.5 16.8968 114.526 17.4536 112.724C18.0161 110.918 18.8172 109.256 19.857 107.739H21.6297C21.2206 108.301 20.8371 108.994 20.4791 109.818C20.1269 110.636 19.8172 111.537 19.5502 112.52C19.2831 113.497 19.0729 114.509 18.9195 115.554C18.7718 116.599 18.6979 117.631 18.6979 118.648C18.6979 120 18.8286 121.372 19.0899 122.764C19.3513 124.156 19.7036 125.449 20.1468 126.642C20.5899 127.835 21.0843 128.807 21.6297 129.557H19.857C18.8172 128.04 18.0161 126.381 17.4536 124.58C16.8968 122.773 16.6183 120.795 16.6183 118.648ZM30.7 109.92V127.375H28.5864V112.136H28.4841L24.2227 114.966V112.818L28.5864 109.92H30.7ZM37.7227 124.989L37.5864 125.909C37.4898 126.557 37.3421 127.25 37.1432 127.989C36.95 128.727 36.7483 129.423 36.5381 130.077C36.3279 130.73 36.1546 131.25 36.0182 131.636H34.4841C34.558 131.273 34.6546 130.793 34.7739 130.196C34.8932 129.599 35.0125 128.932 35.1318 128.193C35.2568 127.46 35.3591 126.71 35.4387 125.943L35.5409 124.989H37.7227ZM53.8584 127.614C52.5743 127.614 51.4806 127.264 50.5771 126.565C49.6737 125.861 48.9834 124.841 48.5061 123.506C48.0289 122.165 47.7902 120.545 47.7902 118.648C47.7902 116.761 48.0289 115.151 48.5061 113.815C48.9891 112.474 49.6823 111.452 50.5857 110.747C51.4948 110.037 52.5857 109.682 53.8584 109.682C55.1311 109.682 56.2192 110.037 57.1226 110.747C58.0317 111.452 58.7249 112.474 59.2021 113.815C59.6851 115.151 59.9266 116.761 59.9266 118.648C59.9266 120.545 59.6879 122.165 59.2107 123.506C58.7334 124.841 58.0431 125.861 57.1396 126.565C56.2362 127.264 55.1425 127.614 53.8584 127.614ZM53.8584 125.739C55.1311 125.739 56.1198 125.125 56.8243 123.898C57.5289 122.67 57.8811 120.92 57.8811 118.648C57.8811 117.136 57.7192 115.849 57.3953 114.787C57.0771 113.724 56.6169 112.915 56.0146 112.358C55.4181 111.801 54.6993 111.523 53.8584 111.523C52.597 111.523 51.6112 112.145 50.901 113.389C50.1908 114.628 49.8357 116.381 49.8357 118.648C49.8357 120.159 49.9948 121.443 50.3129 122.5C50.6311 123.557 51.0885 124.361 51.6851 124.912C52.2874 125.463 53.0118 125.739 53.8584 125.739ZM65.5899 124.989L65.4536 125.909C65.357 126.557 65.2093 127.25 65.0104 127.989C64.8172 128.727 64.6155 129.423 64.4053 130.077C64.195 130.73 64.0218 131.25 63.8854 131.636H62.3513C62.4252 131.273 62.5218 130.793 62.6411 130.196C62.7604 129.599 62.8797 128.932 62.999 128.193C63.124 127.46 63.2263 126.71 63.3058 125.943L63.4081 124.989H65.5899ZM76.0324 127.375V125.841L81.7938 119.534C82.4699 118.795 83.0267 118.153 83.4642 117.608C83.9017 117.057 84.2256 116.54 84.4358 116.057C84.6517 115.568 84.7597 115.057 84.7597 114.523C84.7597 113.909 84.6119 113.378 84.3165 112.929C84.0267 112.48 83.629 112.134 83.1233 111.889C82.6176 111.645 82.0494 111.523 81.4188 111.523C80.7483 111.523 80.1631 111.662 79.6631 111.94C79.1688 112.213 78.7852 112.597 78.5125 113.091C78.2455 113.585 78.1119 114.165 78.1119 114.83H76.1006C76.1006 113.807 76.3364 112.909 76.808 112.136C77.2796 111.364 77.9216 110.761 78.7341 110.33C79.5523 109.898 80.4699 109.682 81.4869 109.682C82.5097 109.682 83.4159 109.898 84.2057 110.33C84.9955 110.761 85.6148 111.344 86.0637 112.077C86.5125 112.81 86.7369 113.625 86.7369 114.523C86.7369 115.165 86.6205 115.793 86.3875 116.406C86.1602 117.014 85.7625 117.693 85.1943 118.443C84.6318 119.187 83.8506 120.097 82.8506 121.17L78.9301 125.364V125.5H87.0438V127.375H76.0324ZM93.5977 124.989L93.4614 125.909C93.3648 126.557 93.2171 127.25 93.0182 127.989C92.825 128.727 92.6233 129.423 92.4131 130.077C92.2029 130.73 92.0296 131.25 91.8932 131.636H90.3591C90.433 131.273 90.5296 130.793 90.6489 130.196C90.7682 129.599 90.8875 128.932 91.0068 128.193C91.1318 127.46 91.2341 126.71 91.3137 125.943L91.4159 124.989H93.5977ZM109.733 127.614C108.449 127.614 107.356 127.264 106.452 126.565C105.549 125.861 104.858 124.841 104.381 123.506C103.904 122.165 103.665 120.545 103.665 118.648C103.665 116.761 103.904 115.151 104.381 113.815C104.864 112.474 105.557 111.452 106.461 110.747C107.37 110.037 108.461 109.682 109.733 109.682C111.006 109.682 112.094 110.037 112.998 110.747C113.907 111.452 114.6 112.474 115.077 113.815C115.56 115.151 115.802 116.761 115.802 118.648C115.802 120.545 115.563 122.165 115.086 123.506C114.608 124.841 113.918 125.861 113.015 126.565C112.111 127.264 111.017 127.614 109.733 127.614ZM109.733 125.739C111.006 125.739 111.995 125.125 112.699 123.898C113.404 122.67 113.756 120.92 113.756 118.648C113.756 117.136 113.594 115.849 113.27 114.787C112.952 113.724 112.492 112.915 111.89 112.358C111.293 111.801 110.574 111.523 109.733 111.523C108.472 111.523 107.486 112.145 106.776 113.389C106.066 114.628 105.711 116.381 105.711 118.648C105.711 120.159 105.87 121.443 106.188 122.5C106.506 123.557 106.964 124.361 107.56 124.912C108.162 125.463 108.887 125.739 109.733 125.739ZM121.465 124.989L121.329 125.909C121.232 126.557 121.084 127.25 120.885 127.989C120.692 128.727 120.491 129.423 120.28 130.077C120.07 130.73 119.897 131.25 119.76 131.636H118.226C118.3 131.273 118.397 130.793 118.516 130.196C118.635 129.599 118.755 128.932 118.874 128.193C118.999 127.46 119.101 126.71 119.181 125.943L119.283 124.989H121.465ZM138.044 109.92V127.375H135.93V112.136H135.828L131.566 114.966V112.818L135.93 109.92H138.044ZM147.393 118.648C147.393 120.795 147.112 122.773 146.549 124.58C145.993 126.381 145.194 128.04 144.155 129.557H142.382C142.791 128.994 143.172 128.301 143.524 127.477C143.882 126.659 144.194 125.761 144.461 124.784C144.728 123.801 144.936 122.787 145.084 121.741C145.237 120.69 145.314 119.659 145.314 118.648C145.314 117.295 145.183 115.923 144.922 114.531C144.66 113.139 144.308 111.847 143.865 110.653C143.422 109.46 142.927 108.489 142.382 107.739H144.155C145.194 109.256 145.993 110.918 146.549 112.724C147.112 114.526 147.393 116.5 147.393 118.648ZM154.793 124.989L154.657 125.909C154.56 126.557 154.412 127.25 154.214 127.989C154.02 128.727 153.819 129.423 153.608 130.077C153.398 130.73 153.225 131.25 153.089 131.636H151.554C151.628 131.273 151.725 130.793 151.844 130.196C151.964 129.599 152.083 128.932 152.202 128.193C152.327 127.46 152.429 126.71 152.509 125.943L152.611 124.989H154.793ZM16.6183 147.648C16.6183 145.5 16.8968 143.526 17.4536 141.724C18.0161 139.918 18.8172 138.256 19.857 136.739H21.6297C21.2206 137.301 20.8371 137.994 20.4791 138.818C20.1269 139.636 19.8172 140.537 19.5502 141.52C19.2831 142.497 19.0729 143.509 18.9195 144.554C18.7718 145.599 18.6979 146.631 18.6979 147.648C18.6979 149 18.8286 150.372 19.0899 151.764C19.3513 153.156 19.7036 154.449 20.1468 155.642C20.5899 156.835 21.0843 157.807 21.6297 158.557H19.857C18.8172 157.04 18.0161 155.381 17.4536 153.58C16.8968 151.773 16.6183 149.795 16.6183 147.648ZM30.2568 156.614C28.9727 156.614 27.879 156.264 26.9756 155.565C26.0722 154.861 25.3818 153.841 24.9046 152.506C24.4273 151.165 24.1887 149.545 24.1887 147.648C24.1887 145.761 24.4273 144.151 24.9046 142.815C25.3875 141.474 26.0807 140.452 26.9841 139.747C27.8932 139.037 28.9841 138.682 30.2568 138.682C31.5296 138.682 32.6176 139.037 33.521 139.747C34.4301 140.452 35.1233 141.474 35.6006 142.815C36.0835 144.151 36.325 145.761 36.325 147.648C36.325 149.545 36.0864 151.165 35.6091 152.506C35.1318 153.841 34.4415 154.861 33.5381 155.565C32.6347 156.264 31.5409 156.614 30.2568 156.614ZM30.2568 154.739C31.5296 154.739 32.5182 154.125 33.2227 152.898C33.9273 151.67 34.2796 149.92 34.2796 147.648C34.2796 146.136 34.1176 144.849 33.7938 143.787C33.4756 142.724 33.0154 141.915 32.4131 141.358C31.8165 140.801 31.0977 140.523 30.2568 140.523C28.9955 140.523 28.0097 141.145 27.2994 142.389C26.5892 143.628 26.2341 145.381 26.2341 147.648C26.2341 149.159 26.3932 150.443 26.7114 151.5C27.0296 152.557 27.4869 153.361 28.0835 153.912C28.6858 154.463 29.4102 154.739 30.2568 154.739ZM41.9884 153.989L41.852 154.909C41.7554 155.557 41.6077 156.25 41.4088 156.989C41.2156 157.727 41.0139 158.423 40.8037 159.077C40.5935 159.73 40.4202 160.25 40.2838 160.636H38.7497C38.8236 160.273 38.9202 159.793 39.0395 159.196C39.1588 158.599 39.2781 157.932 39.3975 157.193C39.5225 156.46 39.6247 155.71 39.7043 154.943L39.8066 153.989H41.9884ZM58.5672 138.92V156.375H56.4536V141.136H56.3513L52.0899 143.966V141.818L56.4536 138.92H58.5672ZM65.5899 153.989L65.4536 154.909C65.357 155.557 65.2093 156.25 65.0104 156.989C64.8172 157.727 64.6155 158.423 64.4053 159.077C64.195 159.73 64.0218 160.25 63.8854 160.636H62.3513C62.4252 160.273 62.5218 159.793 62.6411 159.196C62.7604 158.599 62.8797 157.932 62.999 157.193C63.124 156.46 63.2263 155.71 63.3058 154.943L63.4081 153.989H65.5899ZM81.7256 156.614C80.4415 156.614 79.3477 156.264 78.4443 155.565C77.5409 154.861 76.8506 153.841 76.3733 152.506C75.896 151.165 75.6574 149.545 75.6574 147.648C75.6574 145.761 75.896 144.151 76.3733 142.815C76.8563 141.474 77.5494 140.452 78.4529 139.747C79.3619 139.037 80.4529 138.682 81.7256 138.682C82.9983 138.682 84.0864 139.037 84.9898 139.747C85.8989 140.452 86.5921 141.474 87.0693 142.815C87.5523 144.151 87.7938 145.761 87.7938 147.648C87.7938 149.545 87.5551 151.165 87.0779 152.506C86.6006 153.841 85.9102 154.861 85.0068 155.565C84.1034 156.264 83.0097 156.614 81.7256 156.614ZM81.7256 154.739C82.9983 154.739 83.9869 154.125 84.6915 152.898C85.396 151.67 85.7483 149.92 85.7483 147.648C85.7483 146.136 85.5864 144.849 85.2625 143.787C84.9443 142.724 84.4841 141.915 83.8818 141.358C83.2852 140.801 82.5665 140.523 81.7256 140.523C80.4642 140.523 79.4784 141.145 78.7682 142.389C78.058 143.628 77.7029 145.381 77.7029 147.648C77.7029 149.159 77.8619 150.443 78.1801 151.5C78.4983 152.557 78.9557 153.361 79.5523 153.912C80.1546 154.463 80.879 154.739 81.7256 154.739ZM93.4571 153.989L93.3208 154.909C93.2242 155.557 93.0764 156.25 92.8776 156.989C92.6844 157.727 92.4827 158.423 92.2725 159.077C92.0622 159.73 91.8889 160.25 91.7526 160.636H90.2185C90.2923 160.273 90.3889 159.793 90.5083 159.196C90.6276 158.599 90.7469 157.932 90.8662 157.193C90.9912 156.46 91.0935 155.71 91.173 154.943L91.2753 153.989H93.4571ZM110.036 138.92V156.375H107.922V141.136H107.82L103.559 143.966V141.818L107.922 138.92H110.036ZM117.059 153.989L116.922 154.909C116.826 155.557 116.678 156.25 116.479 156.989C116.286 157.727 116.084 158.423 115.874 159.077C115.664 159.73 115.491 160.25 115.354 160.636H113.82C113.894 160.273 113.991 159.793 114.11 159.196C114.229 158.599 114.348 157.932 114.468 157.193C114.593 156.46 114.695 155.71 114.775 154.943L114.877 153.989H117.059ZM133.194 156.614C131.91 156.614 130.816 156.264 129.913 155.565C129.01 154.861 128.319 153.841 127.842 152.506C127.365 151.165 127.126 149.545 127.126 147.648C127.126 145.761 127.365 144.151 127.842 142.815C128.325 141.474 129.018 140.452 129.922 139.747C130.831 139.037 131.922 138.682 133.194 138.682C134.467 138.682 135.555 139.037 136.459 139.747C137.368 140.452 138.061 141.474 138.538 142.815C139.021 144.151 139.263 145.761 139.263 147.648C139.263 149.545 139.024 151.165 138.547 152.506C138.069 153.841 137.379 154.861 136.476 155.565C135.572 156.264 134.478 156.614 133.194 156.614ZM133.194 154.739C134.467 154.739 135.456 154.125 136.16 152.898C136.865 151.67 137.217 149.92 137.217 147.648C137.217 146.136 137.055 144.849 136.731 143.787C136.413 142.724 135.953 141.915 135.351 141.358C134.754 140.801 134.035 140.523 133.194 140.523C131.933 140.523 130.947 141.145 130.237 142.389C129.527 143.628 129.172 145.381 129.172 147.648C129.172 149.159 129.331 150.443 129.649 151.5C129.967 152.557 130.424 153.361 131.021 153.912C131.623 154.463 132.348 154.739 133.194 154.739ZM146.831 147.648C146.831 149.795 146.549 151.773 145.987 153.58C145.43 155.381 144.632 157.04 143.592 158.557H141.819C142.228 157.994 142.609 157.301 142.961 156.477C143.319 155.659 143.632 154.761 143.899 153.784C144.166 152.801 144.373 151.787 144.521 150.741C144.674 149.69 144.751 148.659 144.751 147.648C144.751 146.295 144.62 144.923 144.359 143.531C144.098 142.139 143.745 140.847 143.302 139.653C142.859 138.46 142.365 137.489 141.819 136.739H143.592C144.632 138.256 145.43 139.918 145.987 141.724C146.549 143.526 146.831 145.5 146.831 147.648ZM154.231 153.989L154.094 154.909C153.998 155.557 153.85 156.25 153.651 156.989C153.458 157.727 153.256 158.423 153.046 159.077C152.836 159.73 152.662 160.25 152.526 160.636H150.992C151.066 160.273 151.162 159.793 151.282 159.196C151.401 158.599 151.52 157.932 151.64 157.193C151.765 156.46 151.867 155.71 151.946 154.943L152.049 153.989H154.231ZM16.6183 176.648C16.6183 174.5 16.8968 172.526 17.4536 170.724C18.0161 168.918 18.8172 167.256 19.857 165.739H21.6297C21.2206 166.301 20.8371 166.994 20.4791 167.818C20.1269 168.636 19.8172 169.537 19.5502 170.52C19.2831 171.497 19.0729 172.509 18.9195 173.554C18.7718 174.599 18.6979 175.631 18.6979 176.648C18.6979 178 18.8286 179.372 19.0899 180.764C19.3513 182.156 19.7036 183.449 20.1468 184.642C20.5899 185.835 21.0843 186.807 21.6297 187.557H19.857C18.8172 186.04 18.0161 184.381 17.4536 182.58C16.8968 180.773 16.6183 178.795 16.6183 176.648ZM30.2568 185.614C28.9727 185.614 27.879 185.264 26.9756 184.565C26.0722 183.861 25.3818 182.841 24.9046 181.506C24.4273 180.165 24.1887 178.545 24.1887 176.648C24.1887 174.761 24.4273 173.151 24.9046 171.815C25.3875 170.474 26.0807 169.452 26.9841 168.747C27.8932 168.037 28.9841 167.682 30.2568 167.682C31.5296 167.682 32.6176 168.037 33.521 168.747C34.4301 169.452 35.1233 170.474 35.6006 171.815C36.0835 173.151 36.325 174.761 36.325 176.648C36.325 178.545 36.0864 180.165 35.6091 181.506C35.1318 182.841 34.4415 183.861 33.5381 184.565C32.6347 185.264 31.5409 185.614 30.2568 185.614ZM30.2568 183.739C31.5296 183.739 32.5182 183.125 33.2227 181.898C33.9273 180.67 34.2796 178.92 34.2796 176.648C34.2796 175.136 34.1176 173.849 33.7938 172.787C33.4756 171.724 33.0154 170.915 32.4131 170.358C31.8165 169.801 31.0977 169.523 30.2568 169.523C28.9955 169.523 28.0097 170.145 27.2994 171.389C26.5892 172.628 26.2341 174.381 26.2341 176.648C26.2341 178.159 26.3932 179.443 26.7114 180.5C27.0296 181.557 27.4869 182.361 28.0835 182.912C28.6858 183.463 29.4102 183.739 30.2568 183.739ZM41.9884 182.989L41.852 183.909C41.7554 184.557 41.6077 185.25 41.4088 185.989C41.2156 186.727 41.0139 187.423 40.8037 188.077C40.5935 188.73 40.4202 189.25 40.2838 189.636H38.7497C38.8236 189.273 38.9202 188.793 39.0395 188.196C39.1588 187.599 39.2781 186.932 39.3975 186.193C39.5225 185.46 39.6247 184.71 39.7043 183.943L39.8066 182.989H41.9884ZM58.124 185.614C56.8399 185.614 55.7462 185.264 54.8428 184.565C53.9394 183.861 53.249 182.841 52.7718 181.506C52.2945 180.165 52.0558 178.545 52.0558 176.648C52.0558 174.761 52.2945 173.151 52.7718 171.815C53.2547 170.474 53.9479 169.452 54.8513 168.747C55.7604 168.037 56.8513 167.682 58.124 167.682C59.3968 167.682 60.4848 168.037 61.3882 168.747C62.2973 169.452 62.9905 170.474 63.4678 171.815C63.9507 173.151 64.1922 174.761 64.1922 176.648C64.1922 178.545 63.9536 180.165 63.4763 181.506C62.999 182.841 62.3087 183.861 61.4053 184.565C60.5019 185.264 59.4081 185.614 58.124 185.614ZM58.124 183.739C59.3968 183.739 60.3854 183.125 61.0899 181.898C61.7945 180.67 62.1468 178.92 62.1468 176.648C62.1468 175.136 61.9848 173.849 61.661 172.787C61.3428 171.724 60.8825 170.915 60.2803 170.358C59.6837 169.801 58.9649 169.523 58.124 169.523C56.8627 169.523 55.8769 170.145 55.1666 171.389C54.4564 172.628 54.1013 174.381 54.1013 176.648C54.1013 178.159 54.2604 179.443 54.5786 180.5C54.8968 181.557 55.3541 182.361 55.9507 182.912C56.553 183.463 57.2774 183.739 58.124 183.739ZM69.8556 182.989L69.7192 183.909C69.6226 184.557 69.4749 185.25 69.276 185.989C69.0828 186.727 68.8811 187.423 68.6709 188.077C68.4607 188.73 68.2874 189.25 68.151 189.636H66.6169C66.6908 189.273 66.7874 188.793 66.9067 188.196C67.026 187.599 67.1453 186.932 67.2646 186.193C67.3896 185.46 67.4919 184.71 67.5715 183.943L67.6737 182.989H69.8556ZM86.4344 167.92V185.375H84.3208V170.136H84.2185L79.9571 172.966V170.818L84.3208 167.92H86.4344ZM93.4571 182.989L93.3208 183.909C93.2242 184.557 93.0764 185.25 92.8776 185.989C92.6844 186.727 92.4827 187.423 92.2725 188.077C92.0622 188.73 91.8889 189.25 91.7526 189.636H90.2185C90.2923 189.273 90.3889 188.793 90.5083 188.196C90.6276 187.599 90.7469 186.932 90.8662 186.193C90.9912 185.46 91.0935 184.71 91.173 183.943L91.2753 182.989H93.4571ZM109.593 185.614C108.309 185.614 107.215 185.264 106.312 184.565C105.408 183.861 104.718 182.841 104.241 181.506C103.763 180.165 103.525 178.545 103.525 176.648C103.525 174.761 103.763 173.151 104.241 171.815C104.723 170.474 105.417 169.452 106.32 168.747C107.229 168.037 108.32 167.682 109.593 167.682C110.866 167.682 111.954 168.037 112.857 168.747C113.766 169.452 114.459 170.474 114.937 171.815C115.419 173.151 115.661 174.761 115.661 176.648C115.661 178.545 115.422 180.165 114.945 181.506C114.468 182.841 113.777 183.861 112.874 184.565C111.971 185.264 110.877 185.614 109.593 185.614ZM109.593 183.739C110.866 183.739 111.854 183.125 112.559 181.898C113.263 180.67 113.616 178.92 113.616 176.648C113.616 175.136 113.454 173.849 113.13 172.787C112.812 171.724 112.351 170.915 111.749 170.358C111.152 169.801 110.434 169.523 109.593 169.523C108.331 169.523 107.346 170.145 106.635 171.389C105.925 172.628 105.57 174.381 105.57 176.648C105.57 178.159 105.729 179.443 106.047 180.5C106.366 181.557 106.823 182.361 107.419 182.912C108.022 183.463 108.746 183.739 109.593 183.739ZM121.324 182.989L121.188 183.909C121.091 184.557 120.944 185.25 120.745 185.989C120.552 186.727 120.35 187.423 120.14 188.077C119.929 188.73 119.756 189.25 119.62 189.636H118.086C118.16 189.273 118.256 188.793 118.375 188.196C118.495 187.599 118.614 186.932 118.733 186.193C118.858 185.46 118.961 184.71 119.04 183.943L119.142 182.989H121.324ZM137.46 185.614C136.176 185.614 135.082 185.264 134.179 184.565C133.275 183.861 132.585 182.841 132.108 181.506C131.63 180.165 131.392 178.545 131.392 176.648C131.392 174.761 131.63 173.151 132.108 171.815C132.591 170.474 133.284 169.452 134.187 168.747C135.096 168.037 136.187 167.682 137.46 167.682C138.733 167.682 139.821 168.037 140.724 168.747C141.633 169.452 142.326 170.474 142.804 171.815C143.287 173.151 143.528 174.761 143.528 176.648C143.528 178.545 143.29 180.165 142.812 181.506C142.335 182.841 141.645 183.861 140.741 184.565C139.838 185.264 138.744 185.614 137.46 185.614ZM137.46 183.739C138.733 183.739 139.721 183.125 140.426 181.898C141.13 180.67 141.483 178.92 141.483 176.648C141.483 175.136 141.321 173.849 140.997 172.787C140.679 171.724 140.218 170.915 139.616 170.358C139.02 169.801 138.301 169.523 137.46 169.523C136.199 169.523 135.213 170.145 134.503 171.389C133.792 172.628 133.437 174.381 133.437 176.648C133.437 178.159 133.596 179.443 133.915 180.5C134.233 181.557 134.69 182.361 135.287 182.912C135.889 183.463 136.613 183.739 137.46 183.739ZM151.096 176.648C151.096 178.795 150.815 180.773 150.253 182.58C149.696 184.381 148.897 186.04 147.858 187.557H146.085C146.494 186.994 146.875 186.301 147.227 185.477C147.585 184.659 147.897 183.761 148.165 182.784C148.432 181.801 148.639 180.787 148.787 179.741C148.94 178.69 149.017 177.659 149.017 176.648C149.017 175.295 148.886 173.923 148.625 172.531C148.363 171.139 148.011 169.847 147.568 168.653C147.125 167.46 146.63 166.489 146.085 165.739H147.858C148.897 167.256 149.696 168.918 150.253 170.724C150.815 172.526 151.096 174.5 151.096 176.648ZM159.792 176.648C159.792 178.795 159.51 180.773 158.948 182.58C158.391 184.381 157.593 186.04 156.553 187.557H154.78C155.189 186.994 155.57 186.301 155.922 185.477C156.28 184.659 156.593 183.761 156.86 182.784C157.127 181.801 157.334 180.787 157.482 179.741C157.635 178.69 157.712 177.659 157.712 176.648C157.712 175.295 157.581 173.923 157.32 172.531C157.059 171.139 156.706 169.847 156.263 168.653C155.82 167.46 155.326 166.489 154.78 165.739H156.553C157.593 167.256 158.391 168.918 158.948 170.724C159.51 172.526 159.792 174.5 159.792 176.648Z" fill="#006CA9"/>
<rect x="212.146" y="23.1719" width="198" height="198" stroke="#737370" stroke-width="2"/>
<line x1="211.146" y1="61.1719" x2="411.156" y2="61.1719" stroke="#737370" stroke-width="2"/>
<line x1="250.146" y1="222.188" x2="250.146" y2="22.1775" stroke="#737370" stroke-width="2"/>
<line x1="370.146" y1="222.188" x2="370.146" y2="22.1775" stroke="#737370" stroke-width="2"/>
<line x1="330.146" y1="222.188" x2="330.146" y2="22.1775" stroke="#737370" stroke-width="2"/>
<line x1="290.146" y1="222.188" x2="290.146" y2="22.1775" stroke="#737370" stroke-width="2"/>
<line x1="211.146" y1="181.172" x2="411.156" y2="181.172" stroke="#737370" stroke-width="2"/>
<line x1="211.146" y1="141.172" x2="411.156" y2="141.172" stroke="#737370" stroke-width="2"/>
<line x1="211.146" y1="101.172" x2="411.156" y2="101.172" stroke="#737370" stroke-width="2"/>
<path d="M230.077 51.4787C229.247 51.4787 228.495 51.3224 227.818 51.0099C227.142 50.6918 226.605 50.2344 226.208 49.6378C225.81 49.0355 225.611 48.3082 225.611 47.456C225.611 46.706 225.759 46.098 226.054 45.6321C226.35 45.1605 226.745 44.7912 227.239 44.5241C227.733 44.2571 228.279 44.0582 228.875 43.9276C229.478 43.7912 230.083 43.6832 230.691 43.6037C231.486 43.5014 232.131 43.4247 232.625 43.3736C233.125 43.3168 233.489 43.223 233.716 43.0923C233.949 42.9616 234.066 42.7344 234.066 42.4105V42.3423C234.066 41.5014 233.835 40.848 233.375 40.3821C232.921 39.9162 232.23 39.6832 231.304 39.6832C230.344 39.6832 229.591 39.8935 229.046 40.3139C228.5 40.7344 228.117 41.1832 227.895 41.6605L225.986 40.9787C226.327 40.1832 226.782 39.5639 227.35 39.1207C227.924 38.6719 228.549 38.3594 229.225 38.1832C229.907 38.0014 230.577 37.9105 231.236 37.9105C231.657 37.9105 232.139 37.9616 232.685 38.0639C233.236 38.1605 233.767 38.3622 234.279 38.669C234.796 38.9759 235.225 39.4389 235.566 40.0582C235.907 40.6776 236.077 41.5071 236.077 42.5469V51.1719H234.066V49.3991H233.963C233.827 49.6832 233.6 49.9872 233.282 50.3111C232.963 50.6349 232.54 50.9105 232.012 51.1378C231.483 51.3651 230.838 51.4787 230.077 51.4787ZM230.384 49.6719C231.179 49.6719 231.85 49.5156 232.395 49.2031C232.946 48.8906 233.361 48.4872 233.639 47.9929C233.924 47.4986 234.066 46.9787 234.066 46.4332V44.5923C233.98 44.6946 233.793 44.7884 233.503 44.8736C233.219 44.9531 232.889 45.0241 232.514 45.0866C232.145 45.1435 231.784 45.1946 231.432 45.2401C231.085 45.2798 230.804 45.3139 230.588 45.3423C230.066 45.4105 229.577 45.5213 229.122 45.6747C228.674 45.8224 228.31 46.0469 228.032 46.348C227.759 46.6435 227.622 47.0469 227.622 47.5582C227.622 48.2571 227.881 48.7855 228.398 49.1435C228.921 49.4957 229.583 49.6719 230.384 49.6719Z" fill="#737370"/>
<path d="M387.602 212.081C387.261 212.081 386.957 212.053 386.69 211.996C386.423 211.945 386.239 211.893 386.136 211.842L386.648 210.07C387.136 210.195 387.568 210.24 387.943 210.206C388.318 210.172 388.65 210.004 388.94 209.703C389.236 209.408 389.506 208.928 389.75 208.263L390.125 207.24L385.284 194.081H387.466L391.079 204.513H391.216L394.829 194.081H397.011L391.454 209.081C391.204 209.757 390.895 210.317 390.525 210.76C390.156 211.209 389.727 211.541 389.239 211.757C388.756 211.973 388.21 212.081 387.602 212.081Z" fill="#737370"/>
<path d="M348.006 196.081L351.142 201.433L354.279 196.081H356.597L352.37 202.626L356.597 209.172H354.279L351.142 204.092L348.006 209.172H345.688L349.847 202.626L345.688 196.081H348.006Z" fill="#737370"/>
<path d="M306.202 209.172L302.214 196.081H304.327L307.157 206.104H307.293L310.089 196.081H312.236L314.998 206.07H315.134L317.964 196.081H320.077L316.089 209.172H314.111L311.248 199.115H311.043L308.18 209.172H306.202Z" fill="#737370"/>
<path d="M277.011 196.081L272.17 209.172H270.125L265.284 196.081H267.466L271.079 206.513H271.216L274.829 196.081H277.011Z" fill="#737370"/>
<path d="M234.264 203.82V196.081H236.275V209.172H234.264V206.956H234.127C233.821 207.621 233.343 208.186 232.696 208.652C232.048 209.112 231.23 209.342 230.241 209.342C229.423 209.342 228.696 209.163 228.059 208.805C227.423 208.442 226.923 207.896 226.559 207.169C226.196 206.436 226.014 205.513 226.014 204.399V196.081H228.025V204.263C228.025 205.217 228.292 205.979 228.826 206.547C229.366 207.115 230.054 207.399 230.889 207.399C231.389 207.399 231.897 207.271 232.414 207.016C232.937 206.76 233.375 206.368 233.727 205.839C234.085 205.311 234.264 204.638 234.264 203.82Z" fill="#737370"/>
<path d="M394.32 156.081V157.786H387.536V156.081H394.32ZM389.513 152.945H391.525V165.422C391.525 165.99 391.607 166.416 391.772 166.7C391.942 166.979 392.158 167.166 392.42 167.263C392.687 167.354 392.968 167.399 393.263 167.399C393.485 167.399 393.667 167.388 393.809 167.365C393.951 167.337 394.065 167.314 394.15 167.297L394.559 169.104C394.422 169.155 394.232 169.206 393.988 169.257C393.744 169.314 393.434 169.342 393.059 169.342C392.491 169.342 391.934 169.22 391.388 168.976C390.849 168.732 390.4 168.359 390.042 167.859C389.69 167.359 389.513 166.729 389.513 165.967V152.945Z" fill="#737370"/>
<path d="M355.99 159.013L354.183 159.524C354.069 159.223 353.902 158.93 353.68 158.646C353.464 158.357 353.169 158.118 352.794 157.93C352.419 157.743 351.938 157.649 351.353 157.649C350.552 157.649 349.884 157.834 349.35 158.203C348.822 158.567 348.558 159.03 348.558 159.592C348.558 160.092 348.74 160.487 349.103 160.777C349.467 161.067 350.035 161.308 350.808 161.501L352.751 161.979C353.921 162.263 354.794 162.697 355.367 163.283C355.941 163.862 356.228 164.609 356.228 165.524C356.228 166.274 356.012 166.945 355.581 167.536C355.154 168.126 354.558 168.592 353.791 168.933C353.024 169.274 352.132 169.445 351.115 169.445C349.779 169.445 348.674 169.155 347.799 168.575C346.924 167.996 346.37 167.149 346.137 166.036L348.046 165.558C348.228 166.263 348.572 166.791 349.078 167.143C349.589 167.496 350.257 167.672 351.081 167.672C352.018 167.672 352.762 167.473 353.313 167.075C353.87 166.672 354.149 166.189 354.149 165.626C354.149 165.172 353.99 164.791 353.671 164.484C353.353 164.172 352.865 163.939 352.206 163.786L350.024 163.274C348.825 162.99 347.944 162.55 347.382 161.953C346.825 161.351 346.546 160.598 346.546 159.695C346.546 158.956 346.754 158.303 347.169 157.734C347.589 157.166 348.16 156.72 348.882 156.396C349.609 156.072 350.433 155.911 351.353 155.911C352.649 155.911 353.666 156.195 354.404 156.763C355.149 157.331 355.677 158.081 355.99 159.013Z" fill="#737370"/>
<path d="M308.522 169.172V156.081H310.465V158.058H310.601C310.84 157.411 311.272 156.885 311.897 156.482C312.522 156.078 313.226 155.876 314.01 155.876C314.158 155.876 314.343 155.879 314.564 155.885C314.786 155.891 314.953 155.899 315.067 155.911V157.956C314.999 157.939 314.843 157.913 314.598 157.879C314.36 157.839 314.107 157.82 313.84 157.82C313.203 157.82 312.635 157.953 312.135 158.22C311.641 158.482 311.249 158.845 310.959 159.311C310.675 159.771 310.533 160.297 310.533 160.888V169.172H308.522Z" fill="#737370"/>
<path d="M274.606 176.081V169.161H274.435C274.288 169.399 274.077 169.7 273.805 170.064C273.532 170.422 273.143 170.743 272.637 171.027C272.131 171.305 271.458 171.445 270.617 171.445C269.526 171.445 268.563 171.169 267.728 170.618C266.893 170.061 266.239 169.277 265.768 168.266C265.296 167.249 265.06 166.047 265.06 164.661C265.06 163.286 265.296 162.092 265.768 161.081C266.239 160.07 266.896 159.288 267.736 158.737C268.577 158.186 269.549 157.911 270.651 157.911C271.503 157.911 272.177 158.053 272.671 158.337C273.171 158.615 273.552 158.933 273.813 159.291C274.08 159.643 274.288 159.933 274.435 160.161H274.674V158.081H276.617V176.081H274.606ZM270.89 169.638C271.697 169.638 272.378 169.428 272.935 169.007C273.492 168.581 273.915 167.993 274.205 167.243C274.495 166.487 274.64 165.615 274.64 164.626C274.64 163.649 274.498 162.794 274.214 162.061C273.93 161.322 273.509 160.749 272.952 160.339C272.396 159.925 271.708 159.717 270.89 159.717C270.038 159.717 269.327 159.936 268.759 160.374C268.197 160.805 267.773 161.393 267.489 162.138C267.211 162.876 267.072 163.706 267.072 164.626C267.072 165.558 267.214 166.405 267.498 167.166C267.788 167.922 268.214 168.524 268.776 168.973C269.344 169.416 270.049 169.638 270.89 169.638Z" fill="#737370"/>
<path d="M225.674 174.081V156.081H227.617V158.161H227.856C228.003 157.933 228.208 157.643 228.469 157.291C228.736 156.933 229.117 156.615 229.611 156.337C230.111 156.053 230.788 155.911 231.64 155.911C232.742 155.911 233.714 156.186 234.555 156.737C235.396 157.288 236.052 158.07 236.523 159.081C236.995 160.092 237.231 161.286 237.231 162.661C237.231 164.047 236.995 165.249 236.523 166.266C236.052 167.277 235.398 168.061 234.563 168.618C233.728 169.169 232.765 169.445 231.674 169.445C230.833 169.445 230.16 169.305 229.654 169.027C229.148 168.743 228.759 168.422 228.486 168.064C228.214 167.7 228.003 167.399 227.856 167.161H227.685V174.081H225.674ZM227.651 162.626C227.651 163.615 227.796 164.487 228.086 165.243C228.376 165.993 228.799 166.581 229.356 167.007C229.913 167.428 230.594 167.638 231.401 167.638C232.242 167.638 232.944 167.416 233.506 166.973C234.074 166.524 234.501 165.922 234.785 165.166C235.074 164.405 235.219 163.558 235.219 162.626C235.219 161.706 235.077 160.876 234.793 160.138C234.515 159.393 234.092 158.805 233.523 158.374C232.961 157.936 232.253 157.717 231.401 157.717C230.583 157.717 229.896 157.925 229.339 158.339C228.782 158.749 228.361 159.322 228.077 160.061C227.793 160.794 227.651 161.649 227.651 162.626Z" fill="#737370"/>
<path d="M391.144 129.445C389.963 129.445 388.926 129.163 388.034 128.601C387.147 128.038 386.454 127.251 385.954 126.24C385.46 125.229 385.213 124.047 385.213 122.695C385.213 121.331 385.46 120.141 385.954 119.124C386.454 118.107 387.147 117.317 388.034 116.754C388.926 116.192 389.963 115.911 391.144 115.911C392.326 115.911 393.36 116.192 394.247 116.754C395.139 117.317 395.832 118.107 396.326 119.124C396.826 120.141 397.076 121.331 397.076 122.695C397.076 124.047 396.826 125.229 396.326 126.24C395.832 127.251 395.139 128.038 394.247 128.601C393.36 129.163 392.326 129.445 391.144 129.445ZM391.144 127.638C392.042 127.638 392.781 127.408 393.36 126.947C393.94 126.487 394.369 125.882 394.647 125.132C394.926 124.382 395.065 123.57 395.065 122.695C395.065 121.82 394.926 121.004 394.647 120.249C394.369 119.493 393.94 118.882 393.36 118.416C392.781 117.95 392.042 117.717 391.144 117.717C390.247 117.717 389.508 117.95 388.929 118.416C388.349 118.882 387.92 119.493 387.642 120.249C387.363 121.004 387.224 121.82 387.224 122.695C387.224 123.57 387.363 124.382 387.642 125.132C387.92 125.882 388.349 126.487 388.929 126.947C389.508 127.408 390.247 127.638 391.144 127.638Z" fill="#737370"/>
<path d="M347.978 121.297V129.172H345.967V116.081H347.91V118.126H348.081C348.387 117.462 348.853 116.928 349.478 116.524C350.103 116.115 350.91 115.911 351.899 115.911C352.785 115.911 353.561 116.092 354.225 116.456C354.89 116.814 355.407 117.359 355.777 118.092C356.146 118.82 356.331 119.74 356.331 120.854V129.172H354.319V120.99C354.319 119.962 354.052 119.161 353.518 118.587C352.984 118.007 352.251 117.717 351.319 117.717C350.677 117.717 350.103 117.857 349.598 118.135C349.098 118.413 348.703 118.82 348.413 119.354C348.123 119.888 347.978 120.536 347.978 121.297Z" fill="#737370"/>
<path d="M302.557 129.172V116.081H304.5V118.126H304.67C304.943 117.428 305.383 116.885 305.991 116.499C306.599 116.107 307.329 115.911 308.182 115.911C309.045 115.911 309.764 116.107 310.338 116.499C310.918 116.885 311.369 117.428 311.693 118.126H311.829C312.165 117.45 312.668 116.913 313.338 116.516C314.008 116.112 314.812 115.911 315.75 115.911C316.92 115.911 317.878 116.277 318.622 117.01C319.366 117.737 319.739 118.871 319.739 120.411V129.172H317.727V120.411C317.727 119.445 317.463 118.754 316.935 118.339C316.406 117.925 315.784 117.717 315.068 117.717C314.148 117.717 313.435 117.996 312.929 118.553C312.423 119.104 312.17 119.803 312.17 120.649V129.172H310.125V120.206C310.125 119.462 309.883 118.862 309.4 118.408C308.918 117.947 308.295 117.717 307.534 117.717C307.011 117.717 306.523 117.857 306.068 118.135C305.619 118.413 305.256 118.8 304.977 119.294C304.704 119.783 304.568 120.348 304.568 120.99V129.172H302.557Z" fill="#737370"/>
<path d="M272.15 111.717V129.172H270.139V111.717H272.15Z" fill="#737370"/>
<path d="M228.334 124.399L228.3 121.911H228.709L234.436 116.081H236.925L230.823 122.251H230.652L228.334 124.399ZM226.459 129.172V111.717H228.47V129.172H226.459ZM234.777 129.172L229.664 122.695L231.095 121.297L237.334 129.172H234.777Z" fill="#737370"/>
<path d="M390.139 78.081H392.15V92.1264C392.15 92.9332 392.011 93.6321 391.733 94.223C391.46 94.8139 391.045 95.2713 390.488 95.5952C389.937 95.919 389.241 96.081 388.4 96.081C388.332 96.081 388.264 96.081 388.196 96.081C388.127 96.081 388.059 96.081 387.991 96.081V94.206C388.059 94.206 388.122 94.206 388.179 94.206C388.235 94.206 388.298 94.206 388.366 94.206C388.98 94.206 389.429 94.0241 389.713 93.6605C389.997 93.3026 390.139 92.7912 390.139 92.1264V78.081ZM391.127 75.8991C390.735 75.8991 390.397 75.7656 390.113 75.4986C389.835 75.2315 389.696 74.9105 389.696 74.5355C389.696 74.1605 389.835 73.8395 390.113 73.5724C390.397 73.3054 390.735 73.1719 391.127 73.1719C391.519 73.1719 391.855 73.3054 392.133 73.5724C392.417 73.8395 392.559 74.1605 392.559 74.5355C392.559 74.9105 392.417 75.2315 392.133 75.4986C391.855 75.7656 391.519 75.8991 391.127 75.8991Z" fill="#737370"/>
<path d="M350.139 91.1719V78.081H352.15V91.1719H350.139ZM351.161 75.8991C350.769 75.8991 350.431 75.7656 350.147 75.4986C349.869 75.2315 349.73 74.9105 349.73 74.5355C349.73 74.1605 349.869 73.8395 350.147 73.5724C350.431 73.3054 350.769 73.1719 351.161 73.1719C351.554 73.1719 351.889 73.3054 352.167 73.5724C352.451 73.8395 352.593 74.1605 352.593 74.5355C352.593 74.9105 352.451 75.2315 352.167 75.4986C351.889 75.7656 351.554 75.8991 351.161 75.8991Z" fill="#737370"/>
<path d="M307.908 83.2969V91.1719H305.897V73.7173H307.908V80.1264H308.078C308.385 79.4503 308.845 78.9134 309.459 78.5156C310.078 78.1122 310.902 77.9105 311.931 77.9105C312.823 77.9105 313.604 78.0895 314.274 78.4474C314.945 78.7997 315.465 79.3423 315.834 80.0753C316.209 80.8026 316.397 81.7287 316.397 82.8537V91.1719H314.385V82.9901C314.385 81.9503 314.115 81.1463 313.576 80.5781C313.041 80.0043 312.3 79.7173 311.351 79.7173C310.692 79.7173 310.101 79.8565 309.578 80.1349C309.061 80.4134 308.652 80.8196 308.351 81.3537C308.056 81.8878 307.908 82.5355 307.908 83.2969Z" fill="#737370"/>
<path d="M270.958 94.3537C269.986 94.3537 269.151 94.2287 268.452 93.9787C267.753 93.7344 267.171 93.4105 266.705 93.0071C266.245 92.6094 265.878 92.1832 265.606 91.7287L267.208 90.6037C267.39 90.8423 267.62 91.1151 267.898 91.4219C268.177 91.7344 268.557 92.0043 269.04 92.2315C269.529 92.4645 270.168 92.581 270.958 92.581C272.015 92.581 272.887 92.3253 273.574 91.8139C274.262 91.3026 274.606 90.5014 274.606 89.4105V86.7514H274.435C274.288 86.9901 274.077 87.2855 273.805 87.6378C273.538 87.9844 273.151 88.294 272.646 88.5668C272.146 88.8338 271.469 88.9673 270.617 88.9673C269.56 88.9673 268.611 88.7173 267.771 88.2173C266.935 87.7173 266.273 86.9901 265.785 86.0355C265.302 85.081 265.06 83.9219 265.06 82.5582C265.06 81.2173 265.296 80.0497 265.768 79.0554C266.239 78.0554 266.896 77.2827 267.736 76.7372C268.577 76.1861 269.549 75.9105 270.651 75.9105C271.503 75.9105 272.18 76.0526 272.68 76.3366C273.185 76.6151 273.572 76.9332 273.839 77.2912C274.111 77.6435 274.322 77.9332 274.469 78.1605H274.674V76.081H276.617V89.5469C276.617 90.6719 276.361 91.5866 275.85 92.2912C275.344 93.0014 274.663 93.5213 273.805 93.8509C272.952 94.1861 272.003 94.3537 270.958 94.3537ZM270.89 87.1605C271.697 87.1605 272.378 86.9759 272.935 86.6065C273.492 86.2372 273.915 85.706 274.205 85.0128C274.495 84.3196 274.64 83.4901 274.64 82.5241C274.64 81.581 274.498 80.7486 274.214 80.027C273.93 79.3054 273.509 78.7401 272.952 78.331C272.396 77.9219 271.708 77.7173 270.89 77.7173C270.038 77.7173 269.327 77.9332 268.759 78.3651C268.197 78.7969 267.773 79.3764 267.489 80.1037C267.211 80.831 267.072 81.6378 267.072 82.5241C267.072 83.4332 267.214 84.2372 267.498 84.9361C267.788 85.6293 268.214 86.1747 268.776 86.5724C269.344 86.9645 270.049 87.1605 270.89 87.1605Z" fill="#737370"/>
<path d="M234.492 78.081V79.7855H227.435V78.081H234.492ZM229.549 91.1719V76.2741C229.549 75.5241 229.725 74.8991 230.077 74.3991C230.429 73.8991 230.887 73.5241 231.449 73.2741C232.012 73.0241 232.605 72.8991 233.23 72.8991C233.725 72.8991 234.128 72.9389 234.441 73.0185C234.753 73.098 234.986 73.1719 235.139 73.2401L234.56 74.9787C234.458 74.9446 234.316 74.902 234.134 74.8509C233.958 74.7997 233.725 74.7741 233.435 74.7741C232.77 74.7741 232.29 74.9418 231.995 75.277C231.705 75.6122 231.56 76.1037 231.56 76.7514V91.1719H229.549Z" fill="#737370"/>
<path d="M391.491 51.4446C390.229 51.4446 389.141 51.1662 388.226 50.6094C387.317 50.0469 386.616 49.2628 386.121 48.2571C385.633 47.2457 385.388 46.0696 385.388 44.7287C385.388 43.3878 385.633 42.206 386.121 41.1832C386.616 40.1548 387.303 39.3537 388.184 38.7798C389.07 38.2003 390.104 37.9105 391.286 37.9105C391.968 37.9105 392.641 38.0241 393.306 38.2514C393.971 38.4787 394.576 38.848 395.121 39.3594C395.667 39.8651 396.101 40.5355 396.425 41.3707C396.749 42.206 396.911 43.2344 396.911 44.456V45.3082H386.82V43.5696H394.866C394.866 42.831 394.718 42.1719 394.422 41.5923C394.133 41.0128 393.718 40.5554 393.178 40.2202C392.644 39.8849 392.013 39.7173 391.286 39.7173C390.485 39.7173 389.792 39.9162 389.207 40.3139C388.627 40.706 388.181 41.2173 387.869 41.848C387.556 42.4787 387.4 43.1548 387.4 43.8764V45.0355C387.4 46.0241 387.57 46.8622 387.911 47.5497C388.258 48.2315 388.738 48.7514 389.351 49.1094C389.965 49.4616 390.678 49.6378 391.491 49.6378C392.019 49.6378 392.496 49.5639 392.922 49.4162C393.354 49.2628 393.726 49.0355 394.039 48.7344C394.351 48.4276 394.593 48.0469 394.763 47.5923L396.707 48.1378C396.502 48.7969 396.158 49.3764 395.675 49.8764C395.192 50.3707 394.596 50.7571 393.886 51.0355C393.175 51.3082 392.377 51.4446 391.491 51.4446Z" fill="#737370"/>
<path d="M350.476 51.4446C349.386 51.4446 348.422 51.169 347.587 50.6179C346.752 50.0611 346.099 49.277 345.627 48.2656C345.155 47.2486 344.92 46.0469 344.92 44.6605C344.92 43.2855 345.155 42.0923 345.627 41.081C346.099 40.0696 346.755 39.2884 347.596 38.7372C348.437 38.1861 349.408 37.9105 350.511 37.9105C351.363 37.9105 352.036 38.0526 352.53 38.3366C353.03 38.6151 353.411 38.9332 353.672 39.2912C353.94 39.6435 354.147 39.9332 354.295 40.1605H354.465V33.7173H356.476V51.1719H354.533V49.1605H354.295C354.147 49.3991 353.937 49.7003 353.664 50.0639C353.391 50.4219 353.002 50.7429 352.496 51.027C351.991 51.3054 351.317 51.4446 350.476 51.4446ZM350.749 49.6378C351.556 49.6378 352.238 49.4276 352.795 49.0071C353.351 48.581 353.775 47.9929 354.065 47.2429C354.354 46.4872 354.499 45.6151 354.499 44.6264C354.499 43.6491 354.357 42.794 354.073 42.0611C353.789 41.3224 353.369 40.7486 352.812 40.3395C352.255 39.9247 351.567 39.7173 350.749 39.7173C349.897 39.7173 349.187 39.9361 348.619 40.3736C348.056 40.8054 347.633 41.3935 347.349 42.1378C347.07 42.8764 346.931 43.706 346.931 44.6264C346.931 45.5582 347.073 46.4048 347.357 47.1662C347.647 47.9219 348.073 48.5241 348.636 48.973C349.204 49.4162 349.908 49.6378 350.749 49.6378Z" fill="#737370"/>
<path d="M311.601 51.4446C310.374 51.4446 309.317 51.1548 308.431 50.5753C307.545 49.9957 306.863 49.1974 306.386 48.1804C305.908 47.1634 305.67 46.0014 305.67 44.6946C305.67 43.3651 305.914 42.1918 306.403 41.1747C306.897 40.152 307.584 39.3537 308.465 38.7798C309.351 38.2003 310.386 37.9105 311.567 37.9105C312.488 37.9105 313.317 38.081 314.056 38.4219C314.795 38.7628 315.4 39.2401 315.871 39.8537C316.343 40.4673 316.636 41.1832 316.749 42.0014H314.738C314.584 41.4048 314.244 40.8764 313.715 40.4162C313.192 39.9503 312.488 39.7173 311.601 39.7173C310.817 39.7173 310.13 39.9219 309.539 40.331C308.954 40.7344 308.496 41.3054 308.167 42.044C307.843 42.777 307.681 43.6378 307.681 44.6264C307.681 45.6378 307.84 46.5185 308.158 47.2685C308.482 48.0185 308.937 48.6009 309.522 49.0156C310.113 49.4304 310.806 49.6378 311.601 49.6378C312.124 49.6378 312.599 49.5469 313.025 49.3651C313.451 49.1832 313.812 48.9219 314.107 48.581C314.403 48.2401 314.613 47.831 314.738 47.3537H316.749C316.636 48.1264 316.354 48.8224 315.905 49.4418C315.462 50.0554 314.874 50.544 314.141 50.9077C313.414 51.2656 312.567 51.4446 311.601 51.4446Z" fill="#737370"/>
<path d="M265.806 51.1719V33.7173H267.817V40.1605H267.988C268.136 39.9332 268.34 39.6435 268.601 39.2912C268.869 38.9332 269.249 38.6151 269.744 38.3366C270.244 38.0526 270.92 37.9105 271.772 37.9105C272.874 37.9105 273.846 38.1861 274.687 38.7372C275.528 39.2884 276.184 40.0696 276.655 41.081C277.127 42.0923 277.363 43.2855 277.363 44.6605C277.363 46.0469 277.127 47.2486 276.655 48.2656C276.184 49.277 275.53 50.0611 274.695 50.6179C273.86 51.169 272.897 51.4446 271.806 51.4446C270.965 51.4446 270.292 51.3054 269.786 51.027C269.28 50.7429 268.891 50.4219 268.619 50.0639C268.346 49.7003 268.136 49.3991 267.988 49.1605H267.749V51.1719H265.806ZM267.783 44.6264C267.783 45.6151 267.928 46.4872 268.218 47.2429C268.508 47.9929 268.931 48.581 269.488 49.0071C270.045 49.4276 270.726 49.6378 271.533 49.6378C272.374 49.6378 273.076 49.4162 273.638 48.973C274.207 48.5241 274.633 47.9219 274.917 47.1662C275.207 46.4048 275.351 45.5582 275.351 44.6264C275.351 43.706 275.209 42.8764 274.925 42.1378C274.647 41.3935 274.224 40.8054 273.655 40.3736C273.093 39.9361 272.386 39.7173 271.533 39.7173C270.715 39.7173 270.028 39.9247 269.471 40.3395C268.914 40.7486 268.494 41.3224 268.209 42.0611C267.925 42.794 267.783 43.6491 267.783 44.6264Z" fill="#737370"/>
<path d="M462.988 111.717V117.717H461.113V111.717H462.988ZM467.351 111.717V117.717H465.476V111.717H467.351ZM476.247 129.445C475.02 129.445 473.963 129.155 473.077 128.575C472.19 127.996 471.508 127.197 471.031 126.18C470.554 125.163 470.315 124.001 470.315 122.695C470.315 121.365 470.559 120.192 471.048 119.175C471.542 118.152 472.23 117.354 473.111 116.78C473.997 116.2 475.031 115.911 476.213 115.911C477.133 115.911 477.963 116.081 478.702 116.422C479.44 116.763 480.045 117.24 480.517 117.854C480.988 118.467 481.281 119.183 481.395 120.001H479.383C479.23 119.405 478.889 118.876 478.361 118.416C477.838 117.95 477.133 117.717 476.247 117.717C475.463 117.717 474.775 117.922 474.184 118.331C473.599 118.734 473.142 119.305 472.812 120.044C472.488 120.777 472.327 121.638 472.327 122.626C472.327 123.638 472.486 124.518 472.804 125.268C473.128 126.018 473.582 126.601 474.167 127.016C474.758 127.43 475.452 127.638 476.247 127.638C476.77 127.638 477.244 127.547 477.67 127.365C478.096 127.183 478.457 126.922 478.753 126.581C479.048 126.24 479.258 125.831 479.383 125.354H481.395C481.281 126.126 481 126.822 480.551 127.442C480.108 128.055 479.52 128.544 478.787 128.908C478.059 129.266 477.213 129.445 476.247 129.445ZM489.619 134.354C488.648 134.354 487.812 134.229 487.113 133.979C486.415 133.734 485.832 133.411 485.366 133.007C484.906 132.609 484.54 132.183 484.267 131.729L485.869 130.604C486.051 130.842 486.281 131.115 486.559 131.422C486.838 131.734 487.219 132.004 487.702 132.232C488.19 132.464 488.829 132.581 489.619 132.581C490.676 132.581 491.548 132.325 492.236 131.814C492.923 131.303 493.267 130.501 493.267 129.411V126.751H493.096C492.949 126.99 492.738 127.286 492.466 127.638C492.199 127.984 491.812 128.294 491.307 128.567C490.807 128.834 490.131 128.967 489.278 128.967C488.221 128.967 487.273 128.717 486.432 128.217C485.596 127.717 484.934 126.99 484.446 126.036C483.963 125.081 483.721 123.922 483.721 122.558C483.721 121.217 483.957 120.05 484.429 119.055C484.9 118.055 485.557 117.283 486.398 116.737C487.238 116.186 488.21 115.911 489.312 115.911C490.165 115.911 490.841 116.053 491.341 116.337C491.846 116.615 492.233 116.933 492.5 117.291C492.773 117.643 492.983 117.933 493.131 118.161H493.335V116.081H495.278V129.547C495.278 130.672 495.023 131.587 494.511 132.291C494.006 133.001 493.324 133.521 492.466 133.851C491.613 134.186 490.665 134.354 489.619 134.354ZM489.551 127.161C490.358 127.161 491.04 126.976 491.596 126.607C492.153 126.237 492.577 125.706 492.866 125.013C493.156 124.32 493.301 123.49 493.301 122.524C493.301 121.581 493.159 120.749 492.875 120.027C492.591 119.305 492.17 118.74 491.613 118.331C491.057 117.922 490.369 117.717 489.551 117.717C488.699 117.717 487.988 117.933 487.42 118.365C486.858 118.797 486.434 119.376 486.15 120.104C485.872 120.831 485.733 121.638 485.733 122.524C485.733 123.433 485.875 124.237 486.159 124.936C486.449 125.629 486.875 126.175 487.437 126.572C488.006 126.964 488.71 127.161 489.551 127.161ZM498.96 129.172V116.081H500.971V129.172H498.96ZM499.983 113.899C499.591 113.899 499.253 113.766 498.969 113.499C498.69 113.232 498.551 112.911 498.551 112.536C498.551 112.161 498.69 111.839 498.969 111.572C499.253 111.305 499.591 111.172 499.983 111.172C500.375 111.172 500.71 111.305 500.988 111.572C501.273 111.839 501.415 112.161 501.415 112.536C501.415 112.911 501.273 113.232 500.988 113.499C500.71 113.766 500.375 113.899 499.983 113.899ZM506.53 124.399L506.496 121.911H506.905L512.633 116.081H515.121L509.019 122.251H508.849L506.53 124.399ZM504.655 129.172V111.717H506.667V129.172H504.655ZM512.974 129.172L507.86 122.695L509.292 121.297L515.53 129.172H512.974ZM517.983 111.717H520.506L526.437 126.206H526.642L532.574 111.717H535.096V129.172H533.119V115.911H532.949L527.494 129.172H525.585L520.131 115.911H519.96V129.172H517.983V111.717ZM544.38 129.445C543.198 129.445 542.161 129.163 541.269 128.601C540.383 128.038 539.689 127.251 539.189 126.24C538.695 125.229 538.448 124.047 538.448 122.695C538.448 121.331 538.695 120.141 539.189 119.124C539.689 118.107 540.383 117.317 541.269 116.754C542.161 116.192 543.198 115.911 544.38 115.911C545.562 115.911 546.596 116.192 547.482 116.754C548.374 117.317 549.067 118.107 549.562 119.124C550.062 120.141 550.312 121.331 550.312 122.695C550.312 124.047 550.062 125.229 549.562 126.24C549.067 127.251 548.374 128.038 547.482 128.601C546.596 129.163 545.562 129.445 544.38 129.445ZM544.38 127.638C545.278 127.638 546.016 127.408 546.596 126.947C547.175 126.487 547.604 125.882 547.883 125.132C548.161 124.382 548.3 123.57 548.3 122.695C548.3 121.82 548.161 121.004 547.883 120.249C547.604 119.493 547.175 118.882 546.596 118.416C546.016 117.95 545.278 117.717 544.38 117.717C543.482 117.717 542.743 117.95 542.164 118.416C541.584 118.882 541.155 119.493 540.877 120.249C540.599 121.004 540.459 121.82 540.459 122.695C540.459 123.57 540.599 124.382 540.877 125.132C541.155 125.882 541.584 126.487 542.164 126.947C542.743 127.408 543.482 127.638 544.38 127.638ZM562.314 134.081V127.161H562.143C561.996 127.399 561.785 127.7 561.513 128.064C561.24 128.422 560.851 128.743 560.345 129.027C559.839 129.305 559.166 129.445 558.325 129.445C557.234 129.445 556.271 129.169 555.436 128.618C554.601 128.061 553.947 127.277 553.476 126.266C553.004 125.249 552.768 124.047 552.768 122.661C552.768 121.286 553.004 120.092 553.476 119.081C553.947 118.07 554.604 117.288 555.444 116.737C556.285 116.186 557.257 115.911 558.359 115.911C559.211 115.911 559.885 116.053 560.379 116.337C560.879 116.615 561.26 116.933 561.521 117.291C561.788 117.643 561.996 117.933 562.143 118.161H562.382V116.081H564.325V134.081H562.314ZM558.598 127.638C559.405 127.638 560.086 127.428 560.643 127.007C561.2 126.581 561.623 125.993 561.913 125.243C562.203 124.487 562.348 123.615 562.348 122.626C562.348 121.649 562.206 120.794 561.922 120.061C561.638 119.322 561.217 118.749 560.66 118.339C560.104 117.925 559.416 117.717 558.598 117.717C557.746 117.717 557.035 117.936 556.467 118.374C555.905 118.805 555.481 119.393 555.197 120.138C554.919 120.876 554.78 121.706 554.78 122.626C554.78 123.558 554.922 124.405 555.206 125.166C555.496 125.922 555.922 126.524 556.484 126.973C557.052 127.416 557.757 127.638 558.598 127.638ZM577.28 119.013L575.473 119.524C575.359 119.223 575.192 118.93 574.97 118.646C574.754 118.357 574.459 118.118 574.084 117.93C573.709 117.743 573.229 117.649 572.643 117.649C571.842 117.649 571.175 117.834 570.64 118.203C570.112 118.567 569.848 119.03 569.848 119.592C569.848 120.092 570.03 120.487 570.393 120.777C570.757 121.067 571.325 121.308 572.098 121.501L574.041 121.979C575.211 122.263 576.084 122.697 576.657 123.283C577.231 123.862 577.518 124.609 577.518 125.524C577.518 126.274 577.302 126.945 576.871 127.536C576.444 128.126 575.848 128.592 575.081 128.933C574.314 129.274 573.422 129.445 572.405 129.445C571.069 129.445 569.964 129.155 569.089 128.575C568.214 127.996 567.66 127.149 567.427 126.036L569.336 125.558C569.518 126.263 569.862 126.791 570.368 127.143C570.879 127.496 571.547 127.672 572.371 127.672C573.308 127.672 574.052 127.473 574.604 127.075C575.16 126.672 575.439 126.189 575.439 125.626C575.439 125.172 575.28 124.791 574.961 124.484C574.643 124.172 574.155 123.939 573.496 123.786L571.314 123.274C570.115 122.99 569.234 122.55 568.672 121.953C568.115 121.351 567.836 120.598 567.836 119.695C567.836 118.956 568.044 118.303 568.459 117.734C568.879 117.166 569.45 116.72 570.172 116.396C570.899 116.072 571.723 115.911 572.643 115.911C573.939 115.911 574.956 116.195 575.694 116.763C576.439 117.331 576.967 118.081 577.28 119.013ZM583.512 129.172L579.523 116.081H581.637L584.466 126.104H584.603L587.398 116.081H589.546L592.307 126.07H592.444L595.273 116.081H597.387L593.398 129.172H591.421L588.557 119.115H588.353L585.489 129.172H583.512ZM601.785 111.717V117.717H599.91V111.717H601.785ZM606.148 111.717V117.717H604.273V111.717H606.148Z" fill="#FA8F00"/>
<path d="M296.44 34.0185C296.951 33.8088 297.195 33.2246 296.986 32.7137L293.568 24.3877C293.359 23.8768 292.774 23.6326 292.264 23.8423C291.753 24.052 291.508 24.6362 291.718 25.1471L294.756 32.548L287.355 35.5856C286.844 35.7953 286.6 36.3795 286.81 36.8904C287.019 37.4014 287.603 37.6456 288.114 37.4358L296.44 34.0185ZM81.6869 47.0172C119.092 23.0724 149.352 10.1626 181.821 8.03486C214.303 5.90625 249.127 14.5595 295.675 34.016L296.446 32.1707C249.796 12.6714 214.631 3.88049 181.69 6.03914C148.736 8.19868 118.139 21.3076 80.6086 45.3328L81.6869 47.0172Z" fill="#82D1F5"/>
<path d="M296.47 110.724C296.93 110.419 297.056 109.798 296.751 109.338L291.778 101.837C291.473 101.376 290.853 101.25 290.392 101.555C289.932 101.861 289.806 102.481 290.111 102.942L294.532 109.61L287.863 114.03C287.403 114.335 287.277 114.955 287.582 115.416C287.888 115.876 288.508 116.002 288.968 115.697L296.47 110.724ZM91.3143 107.153C173.354 93.147 218.139 95.1418 295.719 110.871L296.116 108.911C218.314 93.1367 173.28 91.1307 90.9777 105.182L91.3143 107.153Z" fill="#82D1F5"/>
<circle cx="81.1465" cy="62.1719" r="17" stroke="#82D1F5" stroke-width="2"/>
<circle cx="231.146" cy="200.172" r="17" stroke="#82D1F5" stroke-width="2"/>
<circle cx="33.1465" cy="182.172" r="17" stroke="#82D1F5" stroke-width="2"/>
<circle cx="309.146" cy="122.172" r="17" stroke="#82D1F5" stroke-width="2"/>
<circle cx="311.146" cy="44.1719" r="17" stroke="#82D1F5" stroke-width="2"/>
<circle cx="81.1465" cy="120.172" r="17" stroke="#82D1F5" stroke-width="2"/>
<path d="M475.515 111.102C476.028 110.898 476.28 110.317 476.076 109.804L472.761 101.436C472.557 100.923 471.976 100.672 471.463 100.875C470.949 101.078 470.698 101.66 470.902 102.173L473.848 109.611L466.411 112.557C465.898 112.761 465.646 113.342 465.85 113.856C466.053 114.369 466.634 114.62 467.148 114.417L475.515 111.102ZM326.75 47.0897L474.75 111.09L475.543 109.254L327.543 45.254L326.75 47.0897Z" fill="#82D1F5"/>
<path d="M521.996 136.699C522.287 136.23 522.143 135.614 521.674 135.322L514.027 130.575C513.558 130.284 512.942 130.428 512.65 130.898C512.359 131.367 512.503 131.983 512.973 132.275L519.769 136.494L515.55 143.291C515.259 143.76 515.403 144.377 515.872 144.668C516.341 144.959 516.958 144.815 517.249 144.346L521.996 136.699ZM316.918 137.146C355.564 146.201 386.097 151.026 417.275 151.169C448.455 151.311 480.233 146.771 521.374 137.146L520.919 135.198C479.863 144.804 448.251 149.31 417.285 149.169C386.318 149.027 355.949 144.236 317.375 135.198L316.918 137.146Z" fill="#82D1F5"/>
<path d="M218.021 208.657C218.289 208.174 218.115 207.566 217.632 207.298L209.763 202.93C209.28 202.662 208.671 202.836 208.403 203.319C208.135 203.801 208.309 204.41 208.792 204.678L215.787 208.561L211.904 215.556C211.636 216.038 211.81 216.647 212.293 216.915C212.776 217.183 213.385 217.009 213.653 216.526L218.021 208.657ZM50.6777 197.055C80.7793 213.031 105.131 221.04 130.669 222.541C156.189 224.041 182.808 219.037 217.422 209.133L216.871 207.21C182.322 217.095 155.964 222.025 130.786 220.545C105.628 219.066 81.5608 211.181 51.6153 195.289L50.6777 197.055Z" fill="#82D1F5"/>
<path d="M512.12 190.401C512.246 189.863 511.913 189.325 511.375 189.198L502.614 187.14C502.076 187.013 501.538 187.347 501.412 187.884C501.285 188.422 501.619 188.96 502.156 189.087L509.944 190.917L508.114 198.705C507.988 199.242 508.321 199.78 508.859 199.907C509.397 200.033 509.935 199.7 510.061 199.162L512.12 190.401ZM240.857 213.129C303.812 232.204 349.946 240.073 391.153 236.453C432.383 232.832 468.579 217.717 511.673 191.022L510.62 189.322C467.67 215.928 431.78 230.877 390.978 234.461C350.151 238.047 304.308 230.265 241.436 211.215L240.857 213.129Z" fill="#82D1F5"/>
<path d="M526.892 190.172L533.129 196.409L529.383 200.154L523.146 193.917L516.892 200.172L513.146 196.426L519.401 190.172L513.146 183.917L516.892 180.172L523.146 186.426L529.401 180.19L533.146 183.935L526.892 190.172Z" fill="#737370"/>
</svg>
